<svg enable-background="new 0 0 32 32" viewBox="0 0 32 32" xmlns="http://www.w3.org/2000/svg"><g id="Grid" display="none"/><g id="test"/><g id="true"/><g id="false"/><g id="choose"/><g id="button"/><g id="exam"/><g id="trophy"/><g id="fortune_wheel"/><g id="search"/><g id="light_bulb"/><g id="question"><path d="m28.277 19.464c2.032-2.414 2.946-5.557 2.516-8.732-.657-4.878-4.518-8.789-9.392-9.511-5.538-.81-10.759 2.522-12.376 7.796-4.109 1.239-7.232 4.807-7.82 9.153-.429 3.172.484 6.313 2.516 8.73l-1.269 1.903c-.277.416-.302.948-.066 1.388.235.438.69.711 1.188.711h8.377c4.981 0 9.263-3.087 10.852-7.43h5.627c.501 0 .958-.277 1.192-.723s.203-.979-.073-1.377zm-6.629.848c-.302 4.929-4.561 8.79-9.697 8.79h-7.534l1.189-1.783c.233-.351.193-.816-.099-1.121-1.988-2.08-2.906-4.918-2.518-7.785.554-4.096 3.79-7.373 7.868-7.971 2.848-.417 5.681.445 7.772 2.367 2.094 1.922 3.194 4.657 3.019 7.503zm1.64 1.36c.074-.41.131-.826.157-1.251.208-3.389-1.104-6.646-3.597-8.938-2.373-2.181-5.545-3.203-8.766-2.868 1.652-3.882 5.738-6.247 10.057-5.614 4.083.604 7.32 3.882 7.87 7.971.389 2.873-.528 5.71-2.518 7.786-.292.305-.333.771-.099 1.122l1.194 1.791h-4.298z"/><path d="m12.966 14.729c-1.388-.305-2.801.364-3.435 1.621-.216.427-.33.907-.33 1.387 0 .497.403.9.9.9s.9-.403.9-.9c0-.203.046-.396.137-.576.224-.442.756-.819 1.445-.673.462.101.843.478.947.938.156.691-.222 1.229-.665 1.455-.914.465-1.481 1.369-1.481 2.359 0 .497.403.9.9.9s.9-.403.9-.9c0-.31.191-.6.499-.756 1.259-.643 1.918-2.063 1.604-3.455-.26-1.148-1.171-2.05-2.321-2.3z"/><path d="m12.92 23.25c-.34-.34-.94-.34-1.27 0-.09.08-.15.18-.2.29-.04.109-.07.229-.07.34 0 .12.03.24.07.35.05.11.11.21.2.29.08.08.18.15.29.2.11.04.23.061.34.061.12 0 .24-.021.35-.061.11-.05.21-.12.29-.2.17-.17.26-.399.26-.64 0-.11-.02-.23-.06-.34-.05-.11-.11-.21-.2-.29z"/></g><g id="book"/><g id="eye"/><g id="results"/><g id="mail"/><g id="quiz_1_"/><g id="crossword"/><g id="heart"/><g id="target"/><g id="tv"/><g id="online_quiz"/><g id="computer"/><g id="stopwatch"/><g id="Questionnaire"/><g id="clipboard"/></svg>