<svg enable-background="new 0 0 32 32" viewBox="0 0 32 32" xmlns="http://www.w3.org/2000/svg"><g id="Layer_1" display="none"/><g id="Layer_2"/><g id="Layer_3"/><g id="Layer_4"/><g id="Layer_5"/><g id="Layer_6"/><g id="Layer_7"/><g id="Layer_8"/><g id="Layer_9"/><g id="Layer_10"/><g id="Layer_11"/><g id="Layer_12"/><g id="Layer_13"/><g id="Layer_14"/><g id="Layer_15"/><g id="Layer_16"/><g id="Layer_17"/><g id="Layer_18"/><g id="Layer_19"/><g id="Layer_20"/><g id="Layer_21"/><g id="Layer_22"/><g id="Layer_23"/><g id="Layer_24"/><g id="Layer_25"><path d="m24.699 17.25h-9.949v-9.949c0-.497-.403-.9-.9-.9-6.479-.001-11.75 5.271-11.75 11.749 0 2.585.829 5.039 2.394 7.094 2.231 2.959 5.642 4.656 9.356 4.656 6.479 0 11.75-5.271 11.75-11.75 0-.497-.404-.9-.901-.9zm-10.849 10.85c-3.145 0-6.031-1.436-7.922-3.942-1.326-1.743-2.028-3.82-2.028-6.008 0-5.183 3.983-9.453 9.049-9.909v9.909c0 .497.403.9.9.9h9.909c-.455 5.066-4.726 9.05-9.908 9.05z"/><path d="m17.123 2.1c-.497 0-.9.403-.9.9v11.877c0 .497.403.9.9.9h11.877c.497 0 .9-.403.9-.9 0-7.045-5.732-12.777-12.777-12.777zm.9 11.877v-10.04c5.336.435 9.605 4.704 10.04 10.04z"/></g><g id="Layer_26"/></svg>