<?xml version="1.0"?>
<svg xmlns="http://www.w3.org/2000/svg" id="Layer_1" data-name="Layer 1" viewBox="0 0 64 64"><path d="M60,27a2,2,0,0,0,0-4H56V20h4a2,2,0,0,0,0-4H55.81A10,10,0,0,0,48,8.19V4a2,2,0,0,0-4,0V8H41V4a2,2,0,0,0-4,0V8H34V4a2,2,0,0,0-4,0V8H27V4a2,2,0,0,0-4,0V8H20V4a2,2,0,0,0-4,0V8.19A10,10,0,0,0,8.19,16H4a2,2,0,0,0,0,4H8v3H4a2,2,0,0,0,0,4H8v3H4a2,2,0,0,0,0,4H8v3H4a2,2,0,0,0,0,4H8v3H4a2,2,0,0,0,0,4H8.19A10,10,0,0,0,16,55.81V60a2,2,0,0,0,4,0V56h3v4a2,2,0,0,0,4,0V56h3v4a2,2,0,0,0,4,0V56h3v4a2,2,0,0,0,4,0V56h3v4a2,2,0,0,0,4,0V55.81A10,10,0,0,0,55.81,48H60a2,2,0,0,0,0-4H56V41h4a2,2,0,0,0,0-4H54a2,2,0,0,0-2,2v7.07A5.94,5.94,0,0,1,46.07,52H17.93A5.94,5.94,0,0,1,12,46.07V17.93A5.94,5.94,0,0,1,17.93,12H46.07A5.94,5.94,0,0,1,52,17.93V32a2,2,0,0,0,2,2h6a2,2,0,0,0,0-4H56V27Z"/><polygon points="27.19 33.74 31.02 33.74 29.11 28.26 27.19 33.74"/><path d="M46,16H18a2,2,0,0,0-2,2V46a2,2,0,0,0,2,2H46a2,2,0,0,0,2-2V18A2,2,0,0,0,46,16ZM36.54,39.39a.44.44,0,0,1-.31.14h-2.8a.75.75,0,0,1-.73-.47L31.92,37H26.29l-.78,2.09a.74.74,0,0,1-.73.47H22a.43.43,0,0,1-.31-.14.41.41,0,0,1-.14-.31.56.56,0,0,1,0-.2l5-13.79a.84.84,0,0,1,.86-.62h3.35a.86.86,0,0,1,.87.62l5,13.79a1,1,0,0,1,0,.2A.44.44,0,0,1,36.54,39.39Zm5.92-.4a.55.55,0,0,1-.15.38.53.53,0,0,1-.38.16H38.85a.55.55,0,0,1-.54-.54V25a.53.53,0,0,1,.16-.39.55.55,0,0,1,.38-.15h3.08a.52.52,0,0,1,.38.15.53.53,0,0,1,.15.39Z"/></svg>
