<svg enable-background="new 0 0 32 32" viewBox="0 0 32 32" xmlns="http://www.w3.org/2000/svg"><g id="Grid" display="none"/><g id="chat"/><g id="conversation"/><g id="chatting"/><g id="chat_box"/><g id="speech_bubble"/><g id="talk"/><g id="discussion"/><g id="comment"/><g id="talking"/><g id="speech"/><g id="dialogue"><path d="m25.669 17.114h-15.532c-1.385 0-2.512 1.127-2.512 2.512v5.562l-3.2 2.704c-.553.468-.75 1.209-.5 1.889.249.681.877 1.12 1.602 1.12h20.143c1.385 0 2.511-1.127 2.511-2.512v-8.763c0-1.385-1.127-2.512-2.512-2.512zm.712 11.275c0 .393-.319.711-.711.711h-19.886l3.322-2.807c.202-.171.319-.423.319-.688v-5.979c0-.393.319-.711.712-.711h15.533c.392 0 .711.318.711.711z"/><path d="m22.487 21.578h-9.169c-.497 0-.9.403-.9.9s.403.9.9.9h9.169c.497 0 .9-.403.9-.9s-.403-.9-.9-.9z"/><path d="m18.6 24.631h-5.282c-.497 0-.9.403-.9.9s.403.9.9.9h5.282c.497 0 .9-.403.9-.9s-.403-.9-.9-.9z"/><path d="m6.331 14.885h20.143c.724 0 1.353-.439 1.602-1.12s.052-1.421-.5-1.889l-3.2-2.704v-5.561c0-1.385-1.126-2.511-2.512-2.511h-15.533c-1.385 0-2.511 1.126-2.511 2.511v8.763c-.001 1.385 1.126 2.511 2.511 2.511zm-.712-11.274c0-.392.319-.711.711-.711h15.533c.393 0 .712.319.712.711v5.979c0 .265.117.517.319.688l3.322 2.807h-19.885c-.392 0-.711-.319-.711-.711v-8.763z"/><path d="m9.513 7.364h9.169c.497 0 .9-.403.9-.9s-.403-.9-.9-.9h-9.169c-.497 0-.9.403-.9.9s.403.9.9.9z"/><path d="m9.513 10.417h5.282c.497 0 .9-.403.9-.9s-.403-.9-.9-.9h-5.282c-.497 0-.9.403-.9.9s.403.9.9.9z"/></g><g id="group_chat"/><g id="interactive"/><g id="dialog"/><g id="discuss"/><g id="cloud"/><g id="smalk_talk"/><g id="chat_bubble"/><g id="argument"/><g id="talk_box"/><g id="dialogue_box"/><g id="suggestion"/><g id="approve"/><g id="decline"/><g id="interaction"/></svg>