<svg enable-background="new 0 0 32 32" viewBox="0 0 32 32" xmlns="http://www.w3.org/2000/svg"><g id="Grid" display="none"/><g id="delivery_box"/><g id="warehouse"/><g id="list"/><g id="drop_shipping"/><g id="safety_delivery"/><g id="approval"/><g id="bill"/><g id="cancel"/><g id="add"/><g id="message_1_"/><g id="packing"/><g id="unboxing"/><g id="worldwide"/><g id="credit_card"/><g id="rating"/><g id="return"/><g id="received"/><g id="packages"/><g id="delivery_truck"/><g id="money"/><g id="location_1_"/><g id="chat"/><g id="clock"/><g id="fragile"/><g id="block"/><g id="barcode_scanner"/><g id="trolley"/><g id="customer_service"/><g id="search"/><g id="keep_dry"/><g id="process"/><g id="computer"/><g id="route"/><g id="pin"/><g id="recycle"><path d="m12.273 10.131c-1.182 0-2.143.961-2.143 2.143v7.453c0 1.182.961 2.143 2.143 2.143h7.453c1.182 0 2.143-.961 2.143-2.143v-7.453c0-1.182-.961-2.143-2.143-2.143zm3.006 1.801h1.441v1.092h-1.441zm4.789.341v7.453c0 .188-.153.342-.342.342h-7.453c-.188 0-.342-.153-.342-.342v-7.453c0-.188.153-.342.342-.342h1.205v1.769c0 .619.505 1.124 1.124 1.124h2.795c.619 0 1.124-.505 1.124-1.124v-1.769h1.205c.189.001.342.154.342.342z"/><path d="m27.315 9.184c-.258-.425-.811-.562-1.236-.303-.425.258-.561.811-.303 1.236 1.071 1.768 1.637 3.802 1.637 5.884 0 6.293-5.119 11.412-11.412 11.412-1.17 0-2.312-.174-3.406-.517l1.237-.595c.448-.216.637-.754.422-1.201-.216-.448-.756-.634-1.201-.422l-3.125 1.503c-.226.108-.396.307-.47.545-.074.239-.046.498.079.715l1.728 3.008c.166.29.47.452.781.452.152 0 .306-.039.447-.12.431-.247.58-.798.332-1.229l-.498-.867c1.186.345 2.415.529 3.674.529 7.285 0 13.213-5.928 13.213-13.213 0-2.411-.656-4.769-1.899-6.817z"/><path d="m15.999 4.587c1.17 0 2.312.174 3.406.517l-1.237.595c-.448.216-.637.754-.422 1.201.155.322.478.511.813.511.131 0 .264-.029.389-.089l3.125-1.503c.226-.108.396-.307.47-.545.074-.239.046-.498-.079-.715l-1.728-3.008c-.247-.432-.798-.579-1.229-.332s-.58.798-.332 1.229l.498.867c-1.186-.345-2.414-.529-3.674-.529-7.285 0-13.213 5.928-13.213 13.213 0 2.411.656 4.769 1.898 6.817.169.279.466.434.771.434.159 0 .319-.042.466-.131.425-.258.561-.811.303-1.236-1.071-1.768-1.637-3.802-1.637-5.884 0-6.293 5.119-11.412 11.412-11.412z"/></g><g id="calendar"/><g id="delivery_time"/><g id="loading"/><g id="mailbox"/><g id="damage"/><g id="remove"/><g id="target"/><g id="love"/><g id="shopping_bag"/><g id="gift"/><g id="fast_delivery"/><g id="distribution"/><g id="finished_delivery"/><g id="destination_1_"/><g id="cancel_delivery"/></svg>