<?xml version="1.0" encoding="UTF-8"?>
<svg xmlns="http://www.w3.org/2000/svg" xmlns:xlink="http://www.w3.org/1999/xlink" version="1.1" width="512" height="512" x="0" y="0" viewBox="0 0 32 32" style="enable-background:new 0 0 512 512" xml:space="preserve" class="">
  <g>
    <path d="M12.273 10.131a2.145 2.145 0 0 0-2.143 2.143v7.453c0 1.182.961 2.143 2.143 2.143h7.453a2.145 2.145 0 0 0 2.143-2.143v-7.453a2.145 2.145 0 0 0-2.143-2.143zm3.006 1.801h1.441v1.092h-1.441zm4.789.341v7.453a.342.342 0 0 1-.342.342h-7.453a.342.342 0 0 1-.342-.342v-7.453c0-.188.153-.342.342-.342h1.205V13.7c0 .619.505 1.124 1.124 1.124h2.795c.619 0 1.124-.505 1.124-1.124v-1.769h1.205a.343.343 0 0 1 .342.342z" fill="#86c0ac" opacity="1" data-original="#000000"/>
    <path d="M27.315 9.184a.899.899 0 1 0-1.539.933 11.35 11.35 0 0 1 1.637 5.884c0 6.293-5.119 11.412-11.412 11.412-1.17 0-2.312-.174-3.406-.517l1.237-.595a.901.901 0 0 0 .422-1.201.904.904 0 0 0-1.201-.422l-3.125 1.503a.9.9 0 0 0-.391 1.26l1.728 3.008a.9.9 0 1 0 1.56-.897l-.498-.867c1.186.345 2.415.529 3.674.529 7.285 0 13.213-5.928 13.213-13.213 0-2.411-.656-4.769-1.899-6.817zM15.999 4.587c1.17 0 2.312.174 3.406.517l-1.237.595a.901.901 0 0 0 .78 1.623l3.125-1.503a.9.9 0 0 0 .391-1.26l-1.728-3.008a.9.9 0 1 0-1.561.897l.498.867a13.112 13.112 0 0 0-3.674-.529c-7.285 0-13.213 5.928-13.213 13.213 0 2.411.656 4.769 1.898 6.817a.9.9 0 1 0 1.54-.933 11.35 11.35 0 0 1-1.637-5.884c0-6.293 5.119-11.412 11.412-11.412z" fill="#86c0ac" opacity="1" data-original="#000000"/>
  </g>
</svg>
