<svg width="212" height="40" viewBox="0 0 212 40" fill="none" xmlns="http://www.w3.org/2000/svg">
    <g clip-path="url(#clip0_20967_1127)">
        <path
            d="M35.8321 11.8112H30.0019C30.159 10.8731 30.7257 10.3481 31.8725 9.75308L32.9444 9.19304C34.8627 8.18499 35.8867 7.04393 35.8867 5.18184C35.8867 4.01279 35.4429 3.08875 34.5623 2.42372C33.6816 1.75868 32.644 1.42966 31.4287 1.42966C30.4886 1.41833 29.5657 1.68837 28.7731 2.2067C27.9743 2.71074 27.3805 3.36175 27.0117 4.17381L28.6979 5.90988C29.3535 4.55183 30.3023 3.88679 31.5516 3.88679C32.6098 3.88679 33.2584 4.44681 33.2584 5.22384C33.2584 5.87488 32.9444 6.41392 31.7291 7.04394L31.0397 7.38695C29.5446 8.16399 28.5068 9.05304 27.9061 10.0611C27.3053 11.0691 27.0117 12.3362 27.0117 13.8693V14.2893H35.8321V11.8112Z"
            fill="#D2CBFF" />
        <path
            d="M35.0534 17.1449H25.4004L20.5739 25.7133H30.227L35.0534 34.2887L39.88 25.7133L35.0534 17.1449Z"
            fill="#D2CBFF" />
        <path
            d="M21.4068 31.4315C15.2627 31.4315 10.2586 26.3004 10.2586 20C10.2586 13.6997 15.2627 8.56842 21.4068 8.56842L25.223 0.38502C23.9662 0.128769 22.688 -0.000191004 21.4068 2.12331e-07C10.6341 2.12331e-07 1.90259 8.95344 1.90259 20C1.90259 31.0465 10.6341 40 21.4068 40C25.5351 40.0078 29.5581 38.6638 32.8894 36.1638L28.6705 28.6595C26.6522 30.4473 24.0741 31.4311 21.4068 31.4315Z"
            fill="#D2CBFF" />
        <path
            d="M69.6288 7.37375L72.8301 14.0909L79.8733 15.1515C80.4644 15.2525 80.9568 15.6566 81.154 16.2626C81.351 16.8182 81.2031 17.4748 80.7598 17.8788L75.6375 23.0807L76.8689 30.4545C76.9673 31.0606 76.7212 31.6667 76.2287 32.0202C75.7361 32.4242 75.0958 32.4242 74.554 32.1716L68.2497 28.6869L61.8959 32.1716C61.4035 32.4242 60.7633 32.4242 60.2707 32.0202C59.7781 31.6667 59.5318 31.0606 59.6304 30.4545L60.8124 23.0807L55.69 17.8788C55.296 17.4748 55.1483 16.8182 55.296 16.2626C55.493 15.6566 55.9856 15.2525 56.5766 15.1515L63.669 14.0909L66.8213 7.37375C67.0675 6.81819 67.6094 6.46466 68.2497 6.46466C68.8407 6.46466 69.3825 6.81819 69.6288 7.37375Z"
            fill="#FFA000" />
        <path
            d="M105.091 7.37375L108.292 14.0909L115.335 15.1515C115.927 15.2525 116.419 15.6566 116.616 16.2626C116.813 16.8182 116.665 17.4748 116.222 17.8788L111.1 23.0807L112.331 30.4545C112.429 31.0606 112.183 31.6667 111.691 32.0202C111.198 32.4242 110.558 32.4242 110.016 32.1716L103.712 28.6869L97.3581 32.1716C96.8657 32.4242 96.2254 32.4242 95.7328 32.0202C95.2403 31.6667 94.994 31.0606 95.0926 30.4545L96.2745 23.0807L91.1522 17.8788C90.7582 17.4748 90.6105 16.8182 90.7582 16.2626C90.9552 15.6566 91.4478 15.2525 92.0387 15.1515L99.1312 14.0909L102.283 7.37375C102.53 6.81819 103.072 6.46466 103.712 6.46466C104.303 6.46466 104.845 6.81819 105.091 7.37375Z"
            fill="#FFA000" />
        <path
            d="M140.553 7.37375L143.754 14.0909L150.798 15.1515C151.389 15.2525 151.881 15.6566 152.078 16.2626C152.275 16.8182 152.127 17.4748 151.684 17.8788L146.562 23.0807L147.793 30.4545C147.892 31.0606 147.646 31.6667 147.153 32.0202C146.66 32.4242 146.02 32.4242 145.478 32.1716L139.174 28.6869L132.82 32.1716C132.328 32.4242 131.688 32.4242 131.195 32.0202C130.702 31.6667 130.456 31.0606 130.555 30.4545L131.737 23.0807L126.614 17.8788C126.22 17.4748 126.073 16.8182 126.22 16.2626C126.417 15.6566 126.91 15.2525 127.501 15.1515L134.593 14.0909L137.746 7.37375C137.992 6.81819 138.534 6.46466 139.174 6.46466C139.765 6.46466 140.307 6.81819 140.553 7.37375Z"
            fill="#FFA000" />
        <path
            d="M176.015 7.37375L179.217 14.0909L186.26 15.1515C186.85 15.2525 187.343 15.6566 187.54 16.2626C187.737 16.8182 187.59 17.4748 187.146 17.8788L182.024 23.0807L183.256 30.4545C183.354 31.0606 183.107 31.6667 182.614 32.0202C182.123 32.4242 181.483 32.4242 180.94 32.1716L174.636 28.6869L168.282 32.1716C167.79 32.4242 167.15 32.4242 166.657 32.0202C166.165 31.6667 165.918 31.0606 166.017 30.4545L167.199 23.0807L162.077 17.8788C161.683 17.4748 161.535 16.8182 161.683 16.2626C161.88 15.6566 162.372 15.2525 162.963 15.1515L170.055 14.0909L173.208 7.37375C173.454 6.81819 173.996 6.46466 174.636 6.46466C175.227 6.46466 175.769 6.81819 176.015 7.37375Z"
            fill="#FFA000" />
        <mask id="mask0_20967_1127" style="mask-type:luminance" maskUnits="userSpaceOnUse" x="195"
            y="7" width="16" height="26">
            <path d="M210.097 7.27271H195.913V32.7273H210.097V7.27271Z" fill="white" />
        </mask>
        <g mask="url(#mask0_20967_1127)">
            <path
                d="M211.477 7.37375L214.679 14.0909L221.722 15.1515C222.312 15.2525 222.805 15.6566 223.002 16.2626C223.199 16.8182 223.052 17.4748 222.609 17.8788L217.486 23.0807L218.718 30.4545C218.816 31.0606 218.569 31.6667 218.077 32.0202C217.585 32.4242 216.945 32.4242 216.403 32.1716L210.098 28.6869L203.744 32.1716C203.252 32.4242 202.611 32.4242 202.119 32.0202C201.627 31.6667 201.381 31.0606 201.478 30.4545L202.661 23.0807L197.539 17.8788C197.145 17.4748 196.998 16.8182 197.145 16.2626C197.342 15.6566 197.835 15.2525 198.425 15.1515L205.518 14.0909L208.67 7.37375C208.917 6.81819 209.457 6.46466 210.098 6.46466C210.69 6.46466 211.231 6.81819 211.477 7.37375Z"
                fill="#FFA000" />
        </g>
    </g>
    <defs>
        <clipPath id="clip0_20967_1127">
            <rect width="211" height="40" fill="white" transform="translate(0.5)" />
        </clipPath>
    </defs>
</svg>