<svg enable-background="new 0 0 32 32" viewBox="0 0 32 32" xmlns="http://www.w3.org/2000/svg"><g id="Grid" display="none"/><g id="Headphone"/><g id="chat_1_"/><g id="Message"/><g id="Newspaper"/><g id="Walkie_Talkie"/><g id="Boombox_Radio"/><g id="Microphone"/><g id="Bell"/><g id="TV"/><g id="Website"><path d="m26 1.1h-20c-2.702 0-4.9 2.198-4.9 4.9v20c0 2.702 2.198 4.9 4.9 4.9h20c2.702 0 4.9-2.198 4.9-4.9v-20c0-2.702-2.198-4.9-4.9-4.9zm-20 1.8h20c1.709 0 3.1 1.391 3.1 3.1v3.6h-26.2v-3.6c0-1.709 1.391-3.1 3.1-3.1zm20 26.2h-20c-1.709 0-3.1-1.391-3.1-3.1v-14.6h26.2v14.6c0 1.709-1.391 3.1-3.1 3.1z"/><path d="m25.09 15.1h-9.257c-.497 0-.9.403-.9.9s.403.9.9.9h9.257c.497 0 .9-.403.9-.9s-.403-.9-.9-.9z"/><path d="m25.09 19.35h-9.257c-.497 0-.9.403-.9.9s.403.9.9.9h9.257c.497 0 .9-.403.9-.9s-.403-.9-.9-.9z"/><path d="m25.09 23.6h-18.18c-.497 0-.9.403-.9.9s.403.9.9.9h18.18c.497 0 .9-.403.9-.9s-.403-.9-.9-.9z"/><path d="m6.961 7.15h.492c.497 0 .9-.403.9-.9s-.403-.9-.9-.9h-.492c-.497 0-.9.403-.9.9s.403.9.9.9z"/><path d="m10.836 7.15h.492c.497 0 .9-.403.9-.9s-.403-.9-.9-.9h-.492c-.497 0-.9.403-.9.9s.403.9.9.9z"/><path d="m7.471 21.15h4.303c.805 0 1.46-.655 1.46-1.46v-3.129c0-.805-.655-1.46-1.46-1.46h-4.303c-.806 0-1.461.655-1.461 1.46v3.129c0 .805.655 1.46 1.461 1.46zm.34-4.25h3.622v2.45h-3.622z"/></g><g id="Megaphone"/><g id="Global_Networking"/><g id="Write_a_message"/><g id="No_Chat"/><g id="Networking"/><g id="Computer"/><g id="Telephone"/><g id="Interaction"/><g id="New_Chat"/><g id="Wifi_Router"/><g id="Conversation"/><g id="No_Comment"/><g id="Video_Call"/><g id="Contact"/><g id="Chatting"/></svg>