<?xml version="1.0" encoding="UTF-8"?>
<svg xmlns="http://www.w3.org/2000/svg" xmlns:xlink="http://www.w3.org/1999/xlink" version="1.1" width="512" height="512" x="0" y="0" viewBox="0 0 682.667 682.667" style="enable-background:new 0 0 512 512" xml:space="preserve">
  <g>
    <defs>
      <clipPath id="a">
        <path d="M0 512h512V0H0Z" fill="#132032" opacity="1" data-original="#000000"/>
      </clipPath>
    </defs>
    <g clip-path="url(#a)" transform="matrix(1.33333 0 0 -1.33333 0 682.667)">
      <path d="M0 0c10.177 8.099 11.821 23.021 3.714 33.159-8.136 10.166-23.074 11.809-33.222 3.71L-66.953 6.937c-10.177-8.098-11.82-23.05-3.714-33.187 8.107-10.138 23.074-11.809 33.222-3.682" style="stroke-width:20.176;stroke-linecap:round;stroke-linejoin:round;stroke-miterlimit:10;stroke-dasharray:none;stroke-opacity:1" transform="translate(172.657 186.723)" fill="none" stroke="#132032" stroke-width="20.176" stroke-linecap="round" stroke-linejoin="round" stroke-miterlimit="10" stroke-dasharray="none" stroke-opacity="" data-original="#000000" opacity="1"/>
      <path d="M0 0c-10.176-8.127-11.82-23.051-3.713-33.188 8.107-10.166 23.073-11.808 33.222-3.709L66.954-6.966c10.176 8.099 11.82 23.05 3.713 33.188-8.135 10.137-23.073 11.808-33.222 3.681" style="stroke-width:20.176;stroke-linecap:round;stroke-linejoin:round;stroke-miterlimit:10;stroke-dasharray:none;stroke-opacity:1" transform="translate(164.749 119.922)" fill="none" stroke="#132032" stroke-width="20.176" stroke-linecap="round" stroke-linejoin="round" stroke-miterlimit="10" stroke-dasharray="none" stroke-opacity="" data-original="#000000" opacity="1"/>
      <path d="M0 0c-10.148-8.099-11.82-23.051-3.686-33.188 8.108-10.137 23.046-11.808 33.222-3.681l20.948 16.764c10.148 8.098 11.821 23.022 3.713 33.159-8.134 10.166-23.073 11.808-33.221 3.71" style="stroke-width:20.176;stroke-linecap:round;stroke-linejoin:round;stroke-miterlimit:10;stroke-dasharray:none;stroke-opacity:1" transform="translate(194.258 83.024)" fill="none" stroke="#132032" stroke-width="20.176" stroke-linecap="round" stroke-linejoin="round" stroke-miterlimit="10" stroke-dasharray="none" stroke-opacity="" data-original="#000000" opacity="1"/>
      <path d="m0 0 26.759-21.38c10.147-8.127 11.82-23.051 3.713-33.188C22.336-64.705 7.397-66.376-2.75-58.249l-29.026 23.163" style="stroke-width:20.176;stroke-linecap:round;stroke-linejoin:round;stroke-miterlimit:10;stroke-dasharray:none;stroke-opacity:1" transform="translate(350.02 178.17)" fill="none" stroke="#132032" stroke-width="20.176" stroke-linecap="round" stroke-linejoin="round" stroke-miterlimit="10" stroke-dasharray="none" stroke-opacity="" data-original="#000000" opacity="1"/>
      <path d="m0 0 29.026-23.163c10.148-8.127 11.821-23.051 3.685-33.189C24.604-66.517 9.638-68.159-.511-60.061l-28.998 23.192" style="stroke-width:20.176;stroke-linecap:round;stroke-linejoin:round;stroke-miterlimit:10;stroke-dasharray:none;stroke-opacity:1" transform="translate(318.244 143.085)" fill="none" stroke="#132032" stroke-width="20.176" stroke-linecap="round" stroke-linejoin="round" stroke-miterlimit="10" stroke-dasharray="none" stroke-opacity="" data-original="#000000" opacity="1"/>
      <path d="m0 0 14.485-11.581c10.148-8.127 11.821-23.051 3.713-33.189-8.135-10.166-23.073-11.808-33.221-3.709l-21.09 16.849" style="stroke-width:20.176;stroke-linecap:round;stroke-linejoin:round;stroke-miterlimit:10;stroke-dasharray:none;stroke-opacity:1" transform="translate(288.735 106.216)" fill="none" stroke="#132032" stroke-width="20.176" stroke-linecap="round" stroke-linejoin="round" stroke-miterlimit="10" stroke-dasharray="none" stroke-opacity="" data-original="#000000" opacity="1"/>
      <path d="m0 0 17.376-30.696c4.025-7.136 1.502-16.339-5.669-20.304L-15.08-65.838c-7.172-3.965-16.3-1.473-20.324 5.635L-112.62 76.371c-4.053 7.137-1.53 16.312 5.641 20.275l26.816 14.839c7.171 3.964 16.27 1.5 20.296-5.635l15.675-27.695" style="stroke-width:20.176;stroke-linecap:round;stroke-linejoin:round;stroke-miterlimit:10;stroke-dasharray:none;stroke-opacity:1" transform="translate(482.709 271.335)" fill="none" stroke="#132032" stroke-width="20.176" stroke-linecap="round" stroke-linejoin="round" stroke-miterlimit="10" stroke-dasharray="none" stroke-opacity="" data-original="#000000" opacity="1"/>
      <path d="M0 0c6.321 13.648 20.098 23.758 35.915 28.289" style="stroke-width:20.176;stroke-linecap:round;stroke-linejoin:round;stroke-miterlimit:10;stroke-dasharray:none;stroke-opacity:1" transform="translate(404.416 195.19)" fill="none" stroke="#132032" stroke-width="20.176" stroke-linecap="round" stroke-linejoin="round" stroke-miterlimit="10" stroke-dasharray="none" stroke-opacity="" data-original="#000000" opacity="1"/>
      <path d="M0 0c10.147-8.127 25.114-6.456 33.222 3.682 8.134 10.136 6.463 25.089-3.686 33.187L-2.92 62.808c-15.761 12.573-33.562 26.505-50.456 38.625-30.558 21.889-45.609 36.444-83.905 28.742-28.942-5.834-52.356 3.002-58.45 28.062-3.912 16.113 9.807 23.617 36.992 26.024l43.37 3.88c8.56.764 13.662 1.556 27.523-3.286l26.164-9.146c17.688-6.173 15.307-7.815 33.703-2.492l26.874 7.787" style="stroke-width:20.176;stroke-linecap:round;stroke-linejoin:round;stroke-miterlimit:10;stroke-dasharray:none;stroke-opacity:1" transform="translate(376.78 156.791)" fill="none" stroke="#132032" stroke-width="20.176" stroke-linecap="round" stroke-linejoin="round" stroke-miterlimit="10" stroke-dasharray="none" stroke-opacity="" data-original="#000000" opacity="1"/>
      <path d="m0 0-26.787 14.839c-7.171 3.964-16.299 1.5-20.324-5.636l-77.215-136.546c-4.054-7.136-1.53-16.339 5.64-20.303l26.788-14.838c7.171-3.965 16.299-1.473 20.324 5.634L5.642-20.275C9.694-13.139 7.172-3.964 0 0Z" style="stroke-width:20.176;stroke-linecap:round;stroke-linejoin:round;stroke-miterlimit:10;stroke-dasharray:none;stroke-opacity:1" transform="translate(136.26 367.981)" fill="none" stroke="#132032" stroke-width="20.176" stroke-linecap="round" stroke-linejoin="round" stroke-miterlimit="10" stroke-dasharray="none" stroke-opacity="" data-original="#000000" opacity="1"/>
      <path d="m0 0-44.759 12.969" style="stroke-width:20.176;stroke-linecap:round;stroke-linejoin:round;stroke-miterlimit:10;stroke-dasharray:none;stroke-opacity:1" transform="translate(181.133 324.968)" fill="none" stroke="#132032" stroke-width="20.176" stroke-linecap="round" stroke-linejoin="round" stroke-miterlimit="10" stroke-dasharray="none" stroke-opacity="" data-original="#000000" opacity="1"/>
      <path d="M0 0c-6.35 13.648-20.126 23.758-35.943 28.289" style="stroke-width:20.176;stroke-linecap:round;stroke-linejoin:round;stroke-miterlimit:10;stroke-dasharray:none;stroke-opacity:1" transform="translate(107.603 195.19)" fill="none" stroke="#132032" stroke-width="20.176" stroke-linecap="round" stroke-linejoin="round" stroke-miterlimit="10" stroke-dasharray="none" stroke-opacity="" data-original="#000000" opacity="1"/>
      <path d="M0 0v50.942" style="stroke-width:20.176;stroke-linecap:round;stroke-linejoin:round;stroke-miterlimit:10;stroke-dasharray:none;stroke-opacity:1" transform="translate(255.995 420.058)" fill="none" stroke="#132032" stroke-width="20.176" stroke-linecap="round" stroke-linejoin="round" stroke-miterlimit="10" stroke-dasharray="none" stroke-opacity="" data-original="#000000" opacity="1"/>
      <path d="m0 0-26.646 42.277" style="stroke-width:20.176;stroke-linecap:round;stroke-linejoin:round;stroke-miterlimit:10;stroke-dasharray:none;stroke-opacity:1" transform="translate(189.269 398.96)" fill="none" stroke="#132032" stroke-width="20.176" stroke-linecap="round" stroke-linejoin="round" stroke-miterlimit="10" stroke-dasharray="none" stroke-opacity="" data-original="#000000" opacity="1"/>
      <path d="m0 0 26.617 42.277" style="stroke-width:20.176;stroke-linecap:round;stroke-linejoin:round;stroke-miterlimit:10;stroke-dasharray:none;stroke-opacity:1" transform="translate(322.751 398.96)" fill="none" stroke="#132032" stroke-width="20.176" stroke-linecap="round" stroke-linejoin="round" stroke-miterlimit="10" stroke-dasharray="none" stroke-opacity="" data-original="#000000" opacity="1"/>
      <path d="m0 0 53.943 43.099c10.148 8.098 25.115 6.428 33.222-3.709 8.107-10.138 6.463-25.062-3.713-33.189l-53.915-43.07c-10.176-8.127-25.114-6.456-33.222 3.681C-11.82-23.051-10.147-8.127 0 0Z" style="stroke-width:20.176;stroke-linecap:round;stroke-linejoin:round;stroke-miterlimit:10;stroke-dasharray:none;stroke-opacity:1" transform="translate(135.212 156.791)" fill="none" stroke="#132032" stroke-width="20.176" stroke-linecap="round" stroke-linejoin="round" stroke-miterlimit="10" stroke-dasharray="none" stroke-opacity="" data-original="#000000" opacity="1"/>
      <path d="M0 0v.028" style="stroke-width:20.176;stroke-linecap:round;stroke-linejoin:round;stroke-miterlimit:10;stroke-dasharray:none;stroke-opacity:1" transform="translate(460.57 310.384)" fill="none" stroke="#132032" stroke-width="20.176" stroke-linecap="round" stroke-linejoin="round" stroke-miterlimit="10" stroke-dasharray="none" stroke-opacity="" data-original="#000000" opacity="1"/>
    </g>
  </g>
</svg>
