<?xml version="1.0" encoding="UTF-8"?>
<svg xmlns="http://www.w3.org/2000/svg" xmlns:xlink="http://www.w3.org/1999/xlink" version="1.1" width="512" height="512" x="0" y="0" viewBox="0 0 32 32" style="enable-background:new 0 0 512 512" xml:space="preserve">
  <g>
    <g data-name="Layer 7">
      <path d="M29.63 12.3a.86.86 0 0 0-.27-.58L26.69 9.5v-.95a3.75 3.75 0 0 0-3.75-3.75h-1.87l-2.66-2.22a3.73 3.73 0 0 0-4.81 0L10.94 4.8H9.06a3.76 3.76 0 0 0-3.75 3.75v.94l-2.66 2.23a.84.84 0 0 0-.27.61v14.22a3.76 3.76 0 0 0 3.75 3.75h19.74a3.76 3.76 0 0 0 3.75-3.75V12.31zm-1.51 14.25a2.24 2.24 0 0 1-.31 1.12l-8.09-6.75 8.4-7zm-.41-14.25-1 .84v-1.69zM14.56 3.73a2.25 2.25 0 0 1 2.89 0l1.28 1.07h-5.45zM9.06 6.3h13.88a2.25 2.25 0 0 1 2.25 2.25v5.84l-7.74 6.47a2.25 2.25 0 0 1-2.89 0L6.81 14.4V8.55A2.25 2.25 0 0 1 9.06 6.3zM4.2 27.68a2.19 2.19 0 0 1-.32-1.13V13.91l8.41 7zm1.11-16.23v1.7l-1-.85zm.82 17.35a2.19 2.19 0 0 1-.76-.15l8.09-6.75.14.12a3.76 3.76 0 0 0 4.81 0l.14-.12 8.09 6.75a2.2 2.2 0 0 1-.77.15z" fill="#132032" opacity="1" data-original="#000000"/>
      <path d="M9.59 10.56h12.83a.75.75 0 0 0 0-1.5H9.59a.75.75 0 0 0 0 1.5zM9.59 14.21H17a.75.75 0 0 0 0-1.5H9.59a.75.75 0 0 0 0 1.5z" fill="#132032" opacity="1" data-original="#000000"/>
    </g>
  </g>
</svg>
