<?xml version="1.0" encoding="UTF-8"?>
<svg xmlns="http://www.w3.org/2000/svg" xmlns:xlink="http://www.w3.org/1999/xlink" version="1.1" width="512" height="512" x="0" y="0" viewBox="0 0 32 32" style="enable-background:new 0 0 512 512" xml:space="preserve" class="">
  <g>
    <path d="M21.987 6.577H8.976a.9.9 0 0 0 0 1.8h13.012a.9.9 0 1 0-.001-1.8zM22.887 12.551a.9.9 0 0 0-.9-.9H8.976a.9.9 0 0 0 0 1.8h13.012a.9.9 0 0 0 .899-.9zM8.976 16.726a.9.9 0 0 0 0 1.8h6.554a.9.9 0 0 0 0-1.8z" fill="#132032" opacity="1" data-original="#000000" class=""/>
    <path d="M11.313 29.1H5.744a1.394 1.394 0 0 1-1.392-1.392V4.292c0-.768.625-1.392 1.392-1.392H25.22c.767 0 1.392.625 1.392 1.392v8.545a.9.9 0 0 0 1.8 0V4.292A3.195 3.195 0 0 0 25.221 1.1H5.744a3.196 3.196 0 0 0-3.192 3.192v23.416A3.196 3.196 0 0 0 5.744 30.9h5.569a.9.9 0 0 0 0-1.8z" fill="#132032" opacity="1" data-original="#000000" class=""/>
    <path d="M28.467 16.914a3.353 3.353 0 0 0-4.738 0l-8.275 8.275a1.77 1.77 0 0 0-.496.959l-.452 2.683a1.774 1.774 0 0 0 2.043 2.044l2.681-.453c.366-.061.699-.232.961-.495l8.275-8.275a3.354 3.354 0 0 0 .001-4.738zm-9.534 11.733-2.652.483.445-2.669 5.955-5.955 2.194 2.194zm8.261-8.268-1.047 1.048-2.194-2.194 1.048-1.048c.302-.302.7-.453 1.097-.453a1.55 1.55 0 0 1 1.096 2.647z" fill="#132032" opacity="1" data-original="#000000" class=""/>
  </g>
</svg>
