<?xml version="1.0" encoding="UTF-8"?>
<svg xmlns="http://www.w3.org/2000/svg" xmlns:xlink="http://www.w3.org/1999/xlink" version="1.1" width="512" height="512" x="0" y="0" viewBox="0 0 32 32" style="enable-background:new 0 0 512 512" xml:space="preserve" class="">
  <g>
    <path d="m29.803 20.284-.34-.16a.9.9 0 1 0-.765 1.629l.342.161c.021.009.059.027.059.09 0 .062-.038.08-.062.091l-13.082 6.12-12.994-6.122c-.021-.01-.059-.027-.059-.089 0-.063.038-.081.061-.091l.34-.16a.899.899 0 1 0-.765-1.629l-.338.159a1.88 1.88 0 0 0-1.097 1.721c0 .745.42 1.404 1.094 1.718l12.983 6.117a1.886 1.886 0 0 0 1.634.004l12.987-6.119c.677-.316 1.097-.975 1.097-1.72s-.42-1.404-1.095-1.72z" fill="#132032" opacity="1" data-original="#000000"/>
    <path d="m2.196 17.723 12.983 6.117a1.886 1.886 0 0 0 1.634.004L29.8 17.725a1.881 1.881 0 0 0 1.097-1.72 1.88 1.88 0 0 0-1.095-1.72l-.34-.16a.9.9 0 0 0-.765 1.629l.342.161c.021.009.059.027.059.09 0 .062-.038.08-.062.091l-13.082 6.12-12.993-6.123c-.021-.01-.059-.027-.059-.089 0-.063.038-.081.061-.091l.34-.16a.899.899 0 1 0-.765-1.629l-.338.159a1.88 1.88 0 0 0-1.097 1.721 1.88 1.88 0 0 0 1.093 1.719z" fill="#132032" opacity="1" data-original="#000000"/>
    <path d="m2.193 11.718 12.996 6.125a1.892 1.892 0 0 0 1.622 0l12.996-6.125c.673-.317 1.09-.976 1.09-1.719s-.418-1.401-1.09-1.718L16.811 2.155a1.893 1.893 0 0 0-1.621 0L2.193 8.281c-.672.316-1.09.975-1.09 1.718s.418 1.401 1.09 1.719zm.768-1.809 13.082-6.125 12.996 6.125c.019.009.058.027.058.09s-.039.082-.058.091l-12.996 6.125a.1.1 0 0 1-.086 0L2.961 10.09c-.019-.009-.058-.027-.058-.091s.039-.082.058-.09z" fill="#132032" opacity="1" data-original="#000000"/>
  </g>
</svg>
