<?xml version="1.0" encoding="UTF-8"?>
<svg xmlns="http://www.w3.org/2000/svg" xmlns:xlink="http://www.w3.org/1999/xlink" version="1.1" width="512" height="512" x="0" y="0" viewBox="0 0 32 32" style="enable-background:new 0 0 512 512" xml:space="preserve">
  <g>
    <path d="M17.552 18.66a.9.9 0 0 0-.9-.9h-3.95a.9.9 0 0 0 0 1.8h3.95a.9.9 0 0 0 .9-.9zM21.605 14.203a.9.9 0 0 0-.9-.9h-8.001a.9.9 0 0 0 0 1.8h8.001a.9.9 0 0 0 .9-.9zM8.859 13.303H8.01a.9.9 0 0 0 0 1.8h.849a.9.9 0 0 0 0-1.8zM15.992 22.229h-3.29a.9.9 0 0 0 0 1.8h3.29a.9.9 0 0 0 0-1.8zM8.859 22.227H8.01a.9.9 0 0 0 0 1.8h.849a.9.9 0 0 0 0-1.8zM8.859 17.765H8.01a.9.9 0 0 0 0 1.8h.849a.9.9 0 0 0 0-1.8z" fill="#132032" opacity="1" data-original="#000000"/>
    <path d="M17.102 28.88H6.382a3.073 3.073 0 0 1-3.07-3.07V9.38a3.073 3.073 0 0 1 3.07-3.07h1.972a1.871 1.871 0 0 0 1.865 2.136h8.278a1.88 1.88 0 0 0 1.5-.738c.311-.404.431-.903.365-1.399h1.971a3.073 3.073 0 0 1 3.07 3.07v4.68a.9.9 0 0 0 1.8 0V9.38a4.876 4.876 0 0 0-4.87-4.87h-2.418l-.247-.933a2.892 2.892 0 0 0-2.134-2.079 14.722 14.722 0 0 0-3.188-.399 14.699 14.699 0 0 0-3.163.399 2.894 2.894 0 0 0-2.134 2.079l-.247.933h-2.42a4.875 4.875 0 0 0-4.87 4.87v16.43a4.876 4.876 0 0 0 4.87 4.871h10.72a.9.9 0 0 0 0-1.801zM10.789 4.038c.104-.392.413-.693.808-.787.93-.22 1.863-.338 2.749-.351.91.013 1.843.131 2.773.351.395.093.705.395.808.787l.659 2.493-.089.116-8.351-.036c-.028-.036-.02-.068-.017-.08z" fill="#132032" opacity="1" data-original="#000000"/>
    <path d="m30.158 25.043-.409-.584a.917.917 0 0 1-.167-.529v-2.084c0-2.722-1.992-4.982-4.593-5.413v-.358a.9.9 0 0 0-1.8 0v.358c-2.602.432-4.594 2.691-4.594 5.413v2.084c0 .19-.058.372-.167.527l-.41.583v.001a1.809 1.809 0 0 0-.208 1.688c.218.565.701.985 1.292 1.121.706.162 1.422.283 2.143.376a2.856 2.856 0 0 0 2.842 2.674 2.856 2.856 0 0 0 2.841-2.675 22.336 22.336 0 0 0 2.148-.377 1.817 1.817 0 0 0 1.29-1.119 1.799 1.799 0 0 0-.208-1.686zM24.089 29.1c-.462 0-.845-.3-.991-.713.33.015.66.028.991.028.33 0 .66-.013.99-.028a1.053 1.053 0 0 1-.99.713zm-4.599-3.021.002-.005.409-.582c.323-.46.494-1 .494-1.563v-2.084c0-2.037 1.657-3.693 3.694-3.693s3.693 1.656 3.693 3.693v2.084c0 .563.171 1.104.494 1.563l.399.602c-3.01.692-6.167.708-9.185-.015z" fill="#132032" opacity="1" data-original="#000000"/>
  </g>
</svg>
