<?xml version="1.0" encoding="UTF-8"?>
<svg xmlns="http://www.w3.org/2000/svg" xmlns:xlink="http://www.w3.org/1999/xlink" version="1.1" width="512" height="512" x="0" y="0" viewBox="0 0 32 32" style="enable-background:new 0 0 512 512" xml:space="preserve">
  <g>
    <path d="M29.13 13.46a.9.9 0 0 0-.9.9v7a2.923 2.923 0 0 1-2.92 2.919h-5.8a.902.902 0 0 0-.642.27l-2.994 3.045a.486.486 0 0 1-.343.141c-.077-.015-.214-.017-.331-.136l-3.01-3.051a.897.897 0 0 0-.641-.269H5.82c-1.61 0-2.92-1.31-2.92-2.919V7.9c0-1.615 1.31-2.93 2.92-2.93h9.78a.9.9 0 0 0 0-1.8H5.82C3.218 3.17 1.1 5.292 1.1 7.9v13.46a4.726 4.726 0 0 0 4.721 4.72h5.354l2.744 2.781c.424.432.993.671 1.603.674h.011c.61 0 1.183-.237 1.62-.674l2.735-2.781h5.423a4.726 4.726 0 0 0 4.721-4.72v-7a.903.903 0 0 0-.902-.9z" fill="#132032" opacity="1" data-original="#000000"/>
    <path d="M6.67 11.8a.9.9 0 0 0 .9.9h9.17a.9.9 0 0 0 0-1.8H7.57a.9.9 0 0 0-.9.9zM23.559 16.558H7.57a.9.9 0 0 0 0 1.8h15.988a.9.9 0 0 0 .001-1.8zM23.999 13.787a.9.9 0 0 0 .546 0c2.696-.861 6.796-3.647 6.316-7.457-.228-1.803-1.281-3.176-2.816-3.673-1.271-.411-2.653-.145-3.773.689-1.118-.834-2.501-1.101-3.772-.689-1.536.497-2.589 1.87-2.816 3.673-.484 3.812 3.617 6.597 6.315 7.457zm-4.53-7.23c.141-1.109.718-1.906 1.585-2.187.211-.068.43-.102.649-.102.677 0 1.369.315 1.911.896.342.365.975.365 1.316 0 .718-.77 1.695-1.074 2.562-.795.866.28 1.444 1.077 1.585 2.186.312 2.481-2.537 4.608-4.805 5.424-2.212-.801-5.114-2.969-4.803-5.422z" fill="#132032" opacity="1" data-original="#000000"/>
  </g>
</svg>
