<svg xmlns="http://www.w3.org/2000/svg" width="85" height="50" fill="none"><g clip-path="url(#a)"><path fill="#252F3E" d="M24.59 18.242c0 1.016.11 1.84.303 2.445.22.604.494 1.264.879 1.978.137.22.192.44.192.632 0 .275-.165.55-.522.824l-1.73 1.154c-.248.165-.495.247-.715.247-.275 0-.55-.137-.824-.384a8.5 8.5 0 0 1-.99-1.292 21 21 0 0 1-.85-1.62q-3.216 3.79-8.078 3.79c-2.307 0-4.148-.659-5.494-1.977s-2.033-3.077-2.033-5.275c0-2.335.824-4.23 2.5-5.66 1.676-1.428 3.901-2.142 6.73-2.142.935 0 1.896.082 2.913.22 1.016.137 2.06.357 3.16.604V9.78c0-2.088-.44-3.544-1.292-4.395-.88-.852-2.363-1.264-4.478-1.264-.962 0-1.95.11-2.967.357s-2.006.55-2.967.934c-.44.193-.77.302-.962.357s-.33.083-.44.083c-.384 0-.576-.275-.576-.852V3.654c0-.44.055-.77.192-.962s.385-.384.77-.576q1.441-.742 3.46-1.237c1.347-.357 2.776-.522 4.287-.522 3.269 0 5.659.742 7.197 2.226 1.511 1.483 2.28 3.736 2.28 6.758v8.9zm-11.153 4.176c.906 0 1.84-.165 2.83-.495.988-.33 1.867-.934 2.61-1.758.439-.522.768-1.099.933-1.758a10 10 0 0 0 .275-2.39v-1.154a23 23 0 0 0-2.527-.467 21 21 0 0 0-2.583-.165c-1.84 0-3.187.357-4.093 1.099s-1.346 1.786-1.346 3.16c0 1.29.33 2.252 1.016 2.911.66.687 1.621 1.017 2.885 1.017m22.06 2.967c-.494 0-.824-.083-1.044-.275-.22-.165-.412-.55-.577-1.071L27.42 2.802c-.165-.55-.247-.906-.247-1.099 0-.44.22-.686.66-.686h2.692c.522 0 .879.082 1.071.274.22.165.385.55.55 1.072L36.76 20.55l4.286-18.187c.137-.55.302-.907.522-1.072.22-.164.604-.274 1.098-.274h2.198c.522 0 .88.082 1.1.274.219.165.411.55.521 1.072l4.34 18.406L55.58 2.363c.164-.55.357-.907.549-1.072.22-.164.577-.274 1.071-.274h2.555c.44 0 .687.22.687.686 0 .138-.027.275-.055.44a4 4 0 0 1-.192.687l-6.62 21.236q-.248.825-.578 1.072c-.22.164-.577.274-1.044.274H49.59c-.521 0-.879-.082-1.098-.274-.22-.193-.412-.55-.522-1.1L43.71 6.319l-4.23 17.693c-.138.55-.303.907-.522 1.1-.22.191-.605.274-1.1.274zm35.302.741c-1.428 0-2.857-.164-4.23-.494s-2.445-.687-3.16-1.099c-.44-.247-.742-.522-.851-.77a1.9 1.9 0 0 1-.165-.768v-1.401c0-.577.22-.852.632-.852q.247 0 .494.082c.165.055.412.165.687.275.934.412 1.95.742 3.022.962 1.099.22 2.17.33 3.27.33 1.73 0 3.076-.303 4.01-.907s1.429-1.484 1.429-2.61c0-.77-.248-1.401-.742-1.923-.495-.522-1.429-.99-2.775-1.429l-3.983-1.236c-2.006-.632-3.49-1.566-4.396-2.802-.906-1.21-1.373-2.555-1.373-3.984q0-1.73.741-3.05a7.1 7.1 0 0 1 1.978-2.252c.824-.632 1.758-1.099 2.857-1.429s2.253-.467 3.462-.467c.604 0 1.236.028 1.84.11.632.083 1.21.193 1.786.302.55.138 1.072.275 1.566.44q.743.248 1.154.495c.385.22.66.44.824.686q.248.33.248.907v1.291c0 .577-.22.88-.632.88-.22 0-.577-.11-1.044-.33Q75.099 4.01 72.173 4.01c-1.566 0-2.802.247-3.654.77-.852.521-1.291 1.318-1.291 2.444 0 .77.275 1.429.824 1.951.55.522 1.566 1.044 3.022 1.511l3.901 1.236c1.978.632 3.407 1.511 4.258 2.638.852 1.126 1.264 2.417 1.264 3.846 0 1.181-.247 2.253-.714 3.187a7.4 7.4 0 0 1-2.006 2.417c-.851.687-1.868 1.181-3.05 1.539a13 13 0 0 1-3.928.576"/><g fill="#F90" clip-rule="evenodd"><path d="M75.992 39.478c-9.039 6.676-22.17 10.22-33.462 10.22-15.824 0-30.082-5.852-40.852-15.577-.851-.77-.082-1.813.934-1.209 11.649 6.758 26.017 10.852 40.88 10.852 10.027 0 21.044-2.088 31.181-6.374 1.51-.687 2.802.99 1.319 2.088"/><path d="M79.755 35.193c-1.153-1.484-7.637-.715-10.577-.358-.879.11-1.016-.659-.22-1.236 5.166-3.626 13.654-2.582 14.644-1.374.989 1.237-.275 9.726-5.11 13.792-.742.631-1.456.302-1.127-.522 1.1-2.72 3.544-8.846 2.39-10.302"/></g></g><defs><clipPath id="a"><path fill="#fff" d="M.323 0h84v50h-84z"/></clipPath></defs></svg>