<svg xmlns="http://www.w3.org/2000/svg" width="103.1" height="42.4"><path d="M95.4 29.7c-.2 0-.5-.2-.5-.4V15.6h-4.6c-.2 0-.5-.2-.5-.4v-1.9c0-.2.2-.5.4-.5h12.3c.2 0 .5.2.5.4v1.9c0 .2-.2.5-.4.5H98v13.7c0 .2-.2.5-.4.5h-2.1m-35.7-7-2.4-7-2.5 7zm5.4 6.3c.1.3 0 .6-.4.6h-2.2c-.3 0-.5-.2-.6-.4l-1.2-3.6H54l-1.2 3.6c0 .3-.3.5-.6.4h-2.1c-.3 0-.5-.3-.4-.6l5.7-16c.1-.3.3-.4.6-.4h2.8c.3 0 .5.1.6.4l5.7 16m16.6-1.7c1.4 0 2.3-.7 3-1.8l-3.4-3.7c-1.3.7-2.2 1.5-2.2 3s1.2 2.5 2.6 2.5m1-12.4c-1.1 0-1.7.7-1.7 1.6s.4 1.4 1.2 2.3c1.5-.9 2.1-1.4 2.1-2.3s-.6-1.6-1.7-1.6M92 29.1c.3.3.1.6-.2.6h-2.7c-.3 0-.6-.1-.8-.4l-1.6-1.8c-1.1 1.4-2.6 2.5-5.1 2.5s-5.5-1.9-5.5-5.1 1.3-3.8 3.3-4.9c-1-1.1-1.4-2.3-1.4-3.3 0-2.6 1.8-4.4 4.6-4.4s4.6 1.7 4.6 4.1-1.5 3.3-3.1 4.2l2.4 2.6 1.3-2.3c.2-.3.4-.4.7-.4h2.1c.3 0 .5.2.3.6l-2.4 4.1 3.6 3.9m-21.2.6c.2 0 .5-.2.5-.4V15.6H76c.2 0 .5-.2.5-.4v-1.9c0-.2-.2-.5-.4-.5H63.7c-.2 0-.5.2-.5.4v1.9c0 .2.2.5.4.5h4.6v13.7c0 .2.2.5.4.5h2.1Z"/><path fill="#00a8e0" d="M8.2 37.9c3.7 2.9 8.3 4.5 13 4.5 5.4 0 10.2-2 14-5.2-1.7 1.1-6.4 3.6-13.9 3.6s-10.6-1.5-13-2.8m14.3 1c5.2 0 10.9-1.4 14.4-4.2.9-.8 1.8-1.8 2.6-3.2.5-.9.9-1.7 1.3-2.6-3.2 4.7-12.4 7.6-21.9 7.6S5 34.4 2.2 30.3C4.8 35.9 12.9 39 22.8 39m-5.9-9.3C6.1 29.7 1 24.6 0 21.2c0 1.2.1 2.7.3 3.7 0 .5.5 1.2 1.1 1.8 2.6 2.7 9.2 6.6 20.5 6.6s19-5.1 19.7-6.8c.5-1.2.8-3.4.8-5.2v-1.1c-.8 4.1-14 9.6-25.4 9.6M2 12.1C1.3 13.5.8 15 .5 16.5c-.1.5 0 .7.1 1 1.3 2.8 7.9 7.2 23.2 7.2s16.6-2.3 17.8-6.5c.2-.8.2-1.6 0-2.7-.3-1.2-.9-2.7-1.4-3.7.2 5.5-15.2 9-22.9 9S1.9 17.5 1.9 13.3s0-.8.2-1.2m33.1-6.8c0 .1.1.3.1.5 0 2.4-7.2 6.5-18.7 6.5s-10-3.1-10-5.1.3-1.4.9-2.2c-1.1.9-2.1 2-3 3.1-.4.5-.7 1-.7 1.3 0 4.1 10.3 7.1 20 7.1s14.9-3.4 14.9-6.3-.4-1.7-1.5-2.9c-.7-.8-1.3-1.4-2-2M32 3c-3.2-1.9-6.9-3-10.8-3s-7.8 1.1-11 3.1c-1 .6-1.5 1.1-1.5 1.7 0 1.8 4.2 3.7 11.6 3.7s13-2.1 13-4.1-.4-.8-1.3-1.3"/></svg>