<svg width="141" height="70" viewBox="0 0 141 70" fill="none" xmlns="http://www.w3.org/2000/svg">
<g id="att-logo 1">
<path id="Vector" d="M121.462 44.9063C121.39 44.9107 121.317 44.8997 121.249 44.874C121.181 44.8482 121.119 44.8083 121.068 44.7569C121.016 44.7055 120.977 44.6438 120.951 44.5758C120.925 44.5079 120.914 44.4352 120.919 44.3627V28.426H115.505C115.433 28.4286 115.361 28.4163 115.294 28.3899C115.227 28.3635 115.166 28.3236 115.115 28.2726C115.064 28.2215 115.024 28.1606 114.998 28.0934C114.971 28.0263 114.959 27.9544 114.961 27.8823V25.6867C114.959 25.6145 114.971 25.5425 114.997 25.4752C115.024 25.4079 115.063 25.3468 115.114 25.2956C115.166 25.2445 115.227 25.2044 115.294 25.178C115.361 25.1515 115.433 25.1392 115.505 25.1418H129.913C129.986 25.1375 130.059 25.1487 130.127 25.1746C130.195 25.2005 130.256 25.2406 130.307 25.2921C130.359 25.3436 130.398 25.4054 130.424 25.4734C130.45 25.5414 130.461 25.6141 130.456 25.6867V27.8847C130.459 27.9567 130.446 28.0284 130.42 28.0955C130.394 28.1625 130.354 28.2235 130.303 28.2745C130.252 28.3255 130.191 28.3654 130.124 28.3919C130.057 28.4184 129.986 28.4308 129.913 28.4283H124.5V44.3627C124.503 44.4348 124.49 44.5066 124.464 44.5738C124.438 44.6409 124.398 44.7019 124.347 44.7529C124.296 44.8039 124.235 44.8439 124.168 44.8703C124.1 44.8967 124.029 44.9089 123.956 44.9063H121.46M79.9848 36.9497L77.1428 28.797L74.2763 36.9497H79.9848ZM86.2872 44.2612C86.4108 44.5832 86.2137 44.9052 85.8672 44.9052H83.3098C83.1481 44.9168 82.9875 44.871 82.8562 44.7758C82.7249 44.6806 82.6315 44.5422 82.5923 44.3848L81.134 40.1848H73.1517L71.6933 44.3848C71.6542 44.542 71.5609 44.6803 71.4299 44.7754C71.2989 44.8706 71.1385 44.9165 70.977 44.9052H68.5562C68.2342 44.9052 68.0113 44.5832 68.1362 44.2612L74.8328 25.6353C74.9565 25.2888 75.1793 25.1407 75.5492 25.1407H78.8625C79.2335 25.1407 79.4808 25.2877 79.6045 25.6353L86.3012 44.2612M105.5 42.237C107.081 42.237 108.145 41.4728 109.009 40.1627L105.008 35.8635C103.475 36.7292 102.485 37.5925 102.485 39.3227C102.485 41.026 103.869 42.2393 105.501 42.2393M106.613 27.7727C105.33 27.7727 104.586 28.5893 104.586 29.6743C104.586 30.5143 105.03 31.2552 106.045 32.3425C107.799 31.3275 108.541 30.7115 108.541 29.6242C108.541 28.6092 107.9 27.7575 106.614 27.7575M117.551 44.2133C117.872 44.5598 117.675 44.9052 117.278 44.9052H114.129C113.953 44.9206 113.776 44.8899 113.615 44.816C113.455 44.7421 113.316 44.6277 113.214 44.484L111.347 42.4097C110.087 44.0897 108.331 45.3497 105.415 45.3497C101.806 45.3497 98.963 43.1762 98.963 39.4463C98.963 36.5798 100.496 35.048 102.82 33.7647C101.683 32.4557 101.163 31.072 101.163 29.8622C101.163 26.7973 103.313 24.6985 106.55 24.6985C109.863 24.6985 111.888 26.6515 111.888 29.5402C111.888 32.0112 110.109 33.3925 108.231 34.4308L110.999 37.421L112.556 34.7027C112.754 34.3818 112.976 34.2593 113.372 34.2593H115.769C116.166 34.2593 116.387 34.5323 116.142 34.9512L113.387 39.6937L117.563 44.2157M92.8998 44.9075C92.972 44.9103 93.044 44.8981 93.1113 44.8718C93.1786 44.8455 93.2397 44.8055 93.2908 44.7545C93.342 44.7035 93.382 44.6424 93.4085 44.5752C93.435 44.508 93.4473 44.436 93.4447 44.3638V28.4272H98.858C98.9301 28.4298 99.002 28.4175 99.0691 28.3911C99.1362 28.3647 99.1972 28.3247 99.2482 28.2737C99.2993 28.2227 99.3392 28.1617 99.3656 28.0946C99.392 28.0274 99.4043 27.9556 99.4017 27.8835V25.6867C99.4044 25.6145 99.3923 25.5425 99.366 25.4752C99.3396 25.4079 99.2997 25.3468 99.2487 25.2956C99.1976 25.2445 99.1366 25.2044 99.0694 25.178C99.0022 25.1515 98.9302 25.1392 98.858 25.1418H84.4415C84.3693 25.1392 84.2973 25.1515 84.2301 25.178C84.1629 25.2044 84.1018 25.2445 84.0508 25.2956C83.9998 25.3468 83.9599 25.4079 83.9335 25.4752C83.9072 25.5425 83.8951 25.6145 83.8978 25.6867V27.8847C83.8952 27.9568 83.9075 28.0286 83.9339 28.0958C83.9603 28.1629 84.0002 28.2239 84.0513 28.2749C84.1023 28.3259 84.1633 28.3659 84.2304 28.3923C84.2975 28.4187 84.3694 28.4309 84.4415 28.4283H89.8548V44.3627C89.8522 44.4348 89.8645 44.5066 89.8909 44.5738C89.9173 44.6409 89.9572 44.7019 90.0083 44.7529C90.0593 44.8039 90.1203 44.8439 90.1874 44.8703C90.2545 44.8967 90.3264 44.9089 90.3985 44.9063L92.8998 44.9075Z" fill="black"/>
<path id="Vector_2" d="M19.7498 54.5184C24.0853 57.8865 29.4194 59.7141 34.9095 59.7124C41.1558 59.7124 46.8503 57.3931 51.1962 53.5874C51.2487 53.5408 51.223 53.5104 51.1705 53.5408C49.2198 54.8428 43.6618 57.6859 34.9095 57.6859C27.3028 57.6859 22.4962 55.9884 19.7813 54.4741C19.7288 54.4484 19.7113 54.4858 19.7487 54.5208M36.5872 55.7843C42.6713 55.7843 49.3563 54.1253 53.3545 50.8434C54.4488 49.9486 55.4895 48.7586 56.4228 47.1591C56.9938 46.1667 57.4921 45.1342 57.9138 44.0698C57.9325 44.0173 57.9022 43.9916 57.8613 44.0511C54.1432 49.5333 43.3748 52.9353 32.2682 52.9353C24.4095 52.9353 15.9547 50.4223 12.6448 45.6238C12.6122 45.5794 12.5795 45.5981 12.5982 45.6494C15.6712 52.2049 25.0267 55.7843 36.5848 55.7843M29.9372 44.9109C17.2835 44.9109 11.3172 39.0193 10.2357 34.9966C10.224 34.9383 10.1843 34.9499 10.1843 35.0036C10.1843 36.3569 10.3197 38.1046 10.553 39.2643C10.6638 39.8289 11.1363 40.7144 11.7967 41.4226C14.865 44.6099 22.502 49.0876 35.732 49.0876C53.757 49.0876 57.8777 43.0839 58.7188 41.1076C59.3208 39.7076 59.6323 37.1433 59.6323 35.0001C59.6326 34.5534 59.6217 34.1069 59.5997 33.6608C59.5997 33.5943 59.5612 33.5908 59.5483 33.6538C58.6477 38.4838 43.2477 44.9086 29.9407 44.9086M12.5573 24.3986C11.7866 26.0377 11.1941 27.7547 10.7898 29.5203C10.6732 30.0569 10.7292 30.3171 10.9065 30.7184C12.4232 33.9361 20.094 39.0834 37.9872 39.0834C48.9037 39.0834 57.3842 36.4001 58.7573 31.5071C59.0105 30.6064 59.0233 29.6544 58.699 28.3734C58.349 26.9408 57.656 25.2701 57.0797 24.0976C57.061 24.0591 57.0272 24.0649 57.033 24.1093C57.2465 30.5283 39.3463 34.6653 30.314 34.6653C20.5303 34.6653 12.3707 30.7686 12.3707 25.8453C12.3707 25.3728 12.4687 24.9119 12.604 24.4068C12.6157 24.3601 12.5783 24.3543 12.5573 24.3951M51.2382 16.5166C51.3469 16.6869 51.4011 16.8863 51.3933 17.0883C51.3933 19.8346 42.9898 24.6914 29.6117 24.6914C19.7825 24.6914 17.9427 21.0456 17.9427 18.7263C17.9427 17.9096 18.26 17.0498 18.9612 16.1876C18.9997 16.1363 18.967 16.1176 18.9227 16.1549C17.6432 17.2384 16.4775 18.4494 15.4437 19.7693C14.9513 20.3911 14.6468 20.9418 14.6468 21.2719C14.6468 26.0786 26.6962 29.5623 37.9638 29.5623C49.9805 29.5623 55.3262 25.6423 55.3262 22.2123C55.3262 20.9814 54.8595 20.2639 53.6228 18.8698C52.8272 17.9633 52.0747 17.2364 51.2895 16.4991C51.251 16.4676 51.2242 16.4933 51.251 16.5318M47.5702 13.7866C43.8648 11.5653 39.5622 10.3018 34.9235 10.3018C30.2522 10.3018 25.8212 11.6084 22.0902 13.8893C20.9748 14.5753 20.3472 15.1259 20.3472 15.8329C20.3472 17.9178 25.2192 20.1589 33.8607 20.1589C42.4123 20.1589 49.0472 17.7043 49.0472 15.3406C49.0472 14.7771 48.5537 14.3816 47.5562 13.7866" fill="#00A8E0"/>
</g>
</svg>
