<svg xmlns="http://www.w3.org/2000/svg" xml:space="preserve" width="151" height="35"><path d="M25 30.1c-7 0-12.6-5.7-12.6-12.6 0-7 5.7-12.6 12.6-12.6 2.5 0 4.8.7 6.7 1.9L25 17.5l12.6-7.3a16.7 16.7 0 0 0-5.7-5.5c-3-1.8-7.2-2.9-11.9-2.9-6.6 0-12.5 2.4-15.7 6-2.4 2.7-3.8 6-3.8 9.7s1.4 7 3.8 9.7c3.3 3.6 9 6 15.5 6s12.3-2.4 15.5-6c.2-.2.3-.4.5-.6l-.5-1.8c-2.2 3.2-6 5.3-10.3 5.3m41.8 2.3-5.3-19.7c-.9-3.2-3.8-5.5-7.2-5.5-.9 0-1.8.2-2.6.5l-11.4 4.1H52l2 7.5c-1.9-1.7-4.5-2.7-7.2-2.7-5.5 0-10 3.7-10 8.2s4.5 8.2 10 8.2c4 0 7.5-1.9 9.6-4.9l1.2 4.3zm-16.1-3.1c-2.5 0-4.6-2.1-4.6-4.6s2.1-4.6 4.6-4.6 4.6 2.1 4.6 4.6c0 2.6-2.1 4.6-4.6 4.6M88.4 7.1c-.7 0-1.4.2-1.9.4l-7.3 3.4c-.4-2.2-2.2-3.8-4.5-3.8-.7 0-1.4.2-1.9.4l-8.9 4.2H70v20.7h9.2V14c0-1.3 1-2.3 2.3-2.3s2.3 1 2.3 2.3v18.4H93V11.7c0-2.5-2.1-4.6-4.6-4.6m57.6 0c-.7 0-1.4.2-1.9.4l-7.3 3.4c-.4-2.2-2.3-3.8-4.5-3.8-.7 0-1.4.2-1.9.4l-8.9 4.2h6.3v20.7h9.2V14c0-1.3 1-2.3 2.3-2.3s2.3 1 2.3 2.3v18.4h9.2V11.7c-.2-2.5-2.3-4.6-4.8-4.6m-23.2 13c0 7.2-5.8 13-13 13s-13-5.8-13-13 5.8-13 13-13 13 5.8 13 13m-12.4-9c-.4-1.5-2-2.4-3.5-2s-2.4 2-2 3.5l4.5 16.6c.4 1.5 2 2.4 3.5 2s2.4-2 2-3.5z" style="fill:#c00"/></svg>