<svg xmlns="http://www.w3.org/2000/svg" width="96" height="50" fill="none"><g fill="#049FD9" clip-path="url(#a)"><path d="M47.642 33.438c-.123-.034-2.026-.525-4.049-.525-3.829 0-6.134 2.068-6.134 5.147 0 2.725 1.929 4.084 4.243 4.816.257.084.635.203.887.286 1.03.324 1.852.806 1.852 1.64 0 .933-.95 1.537-3.017 1.537-1.815 0-3.556-.52-3.923-.612v3.788c.205.044 2.273.45 4.483.45 3.18 0 6.816-1.39 6.816-5.525 0-2.005-1.228-3.852-3.924-4.709l-1.146-.365c-.684-.215-1.905-.565-1.905-1.567 0-.792.905-1.35 2.57-1.35 1.437 0 3.186.484 3.247.503zm35.106 8.001c0 2.395-1.835 4.333-4.296 4.333-2.465 0-4.295-1.938-4.295-4.333 0-2.39 1.83-4.329 4.295-4.329 2.462 0 4.296 1.939 4.296 4.33m-4.296-8.52c-5.064 0-8.695 3.819-8.695 8.52 0 4.71 3.631 8.526 8.695 8.526 5.062 0 8.699-3.817 8.699-8.526 0-4.702-3.637-8.52-8.7-8.52M31.889 49.672h-4.155V33.21h4.154m-9.864.299c-.39-.116-1.833-.59-3.788-.59-5.055 0-8.766 3.604-8.766 8.52 0 5.304 4.097 8.526 8.766 8.526 1.856 0 3.272-.44 3.788-.586v-4.42c-.178.1-1.536.874-3.49.874-2.767 0-4.552-1.947-4.552-4.394 0-2.52 1.862-4.39 4.552-4.39 1.987 0 3.323.791 3.49.878m43.36-4.418c-.39-.116-1.834-.59-3.788-.59-5.055 0-8.766 3.604-8.766 8.52 0 5.304 4.096 8.526 8.766 8.526 1.855 0 3.271-.44 3.788-.586v-4.42c-.179.1-1.537.874-3.49.874-2.768 0-4.553-1.947-4.553-4.394 0-2.52 1.862-4.39 4.553-4.39 1.987 0 3.323.791 3.49.878M27.722 2.087A2.06 2.06 0 0 0 25.659.033a2.06 2.06 0 0 0-2.062 2.054v21.86a2.062 2.062 0 0 0 4.125 0zm-11.329 7.76a2.062 2.062 0 0 0-4.125 0v9.993a2.062 2.062 0 0 0 4.125 0zM5.065 15.52a2.06 2.06 0 0 0-2.062-2.054A2.06 2.06 0 0 0 .941 15.52v4.321a2.063 2.063 0 0 0 4.124 0"/><path d="M23.597 2.087A2.06 2.06 0 0 1 25.66.033a2.06 2.06 0 0 1 2.062 2.054v21.86a2.062 2.062 0 0 1-4.125 0zm11.328 7.76a2.063 2.063 0 0 1 4.125 0v9.994a2.062 2.062 0 0 1-4.125 0zm11.328 5.672a2.06 2.06 0 0 1 2.063-2.054c1.134 0 2.062.92 2.062 2.054v4.321a2.063 2.063 0 0 1-4.125 0M68.896 2.087A2.06 2.06 0 0 1 70.959.033a2.06 2.06 0 0 1 2.062 2.054v21.86a2.062 2.062 0 0 1-4.125 0zm11.329 7.76a2.062 2.062 0 0 1 4.124 0v9.994a2.062 2.062 0 0 1-4.124 0zm11.328 5.672a2.06 2.06 0 0 1 2.062-2.054c1.135 0 2.063.92 2.063 2.054v4.321a2.063 2.063 0 0 1-4.125 0"/><path d="M73.021 2.087A2.06 2.06 0 0 0 70.96.033a2.06 2.06 0 0 0-2.063 2.054v21.86a2.062 2.062 0 0 0 4.125 0zm-11.328 7.76a2.062 2.062 0 0 0-4.125 0v9.994a2.062 2.062 0 0 0 4.125 0zM50.365 15.52a2.06 2.06 0 0 0-2.062-2.054c-1.135 0-2.063.92-2.063 2.054v4.321a2.063 2.063 0 0 0 4.125 0"/></g><defs><clipPath id="a"><path fill="#fff" d="M.94 0h94.738v50H.94z"/></clipPath></defs></svg>