<svg xmlns="http://www.w3.org/2000/svg" width="181" height="32" fill="none"><g clip-path="url(#a)"><path fill="#007DB8" d="M41.396.426 25.62 12.566c-1.623-6.07-6.88-10.525-13.353-10.525H.941V29.96h11.327c6.475 0 12.138-4.45 13.35-10.52l15.775 12.135L57.176 19.44v10.517h17.8v-5.662h-11.73V2.044H56.77V12.56L41.8 24.701l-3.238-2.825 7.285-5.67 7.685-6.065-4.45-3.637-14.967 11.73-3.238-2.833 14.97-11.327-4.452-3.64zM7.01 7.706h4.852c1.013 0 2 .228 2.91.645a7.8 7.8 0 0 1 2.453 1.783 8.5 8.5 0 0 1 1.695 2.69 9.2 9.2 0 0 1 .63 3.38 9.3 9.3 0 0 1-.575 3.2 8.8 8.8 0 0 1-1.6 2.717 7.65 7.65 0 0 1-2.435 1.875c-.93.45-1.963.698-3.075.698H7.008zm88.192 16.588v5.665h-17.8V2.044h6.473v22.25z"/><path fill="gray" d="M170.158 30.471c5.475 0 9.925-2.737 10.783-8.727l-.343-.343h-1.54l-.342.343c-.858 4.277-3.595 6.675-8.385 6.675-5.99 0-10.27-4.45-10.27-12.325s4.45-12.32 10.267-12.32c4.793 0 7.533 2.397 8.388 6.332l.342.343h1.54l.343-.343c-.855-5.475-5.135-8.385-10.783-8.385-6.675 0-12.665 4.793-12.665 14.205 0 9.755 5.99 14.545 12.665 14.545m-17.455-.855V2.576l-.342-.342h-2.74l-.34.342-10.27 24.13h-.343l-10.61-24.13-.342-.342h-2.738l-.342.342v27.04l.342.343h1.54l.343-.343V6.684h.342l9.925 22.932.343.343h2.055l.342-.343 9.925-22.932h.513v22.932l.342.343h1.54zm-33.37 0v-1.2l-.342-.34h-14.718l-.342-.342V17.466l.342-.342h13.86l.343-.343v-1.37l-.343-.342h-13.86l-.342-.343V4.63l.342-.34h14.718l.342-.343v-1.37l-.342-.342h-17.115l-.343.342v27.04l.343.343h17.115z"/></g><defs><clipPath id="a"><path fill="#fff" d="M.94.412h180v31.176H.94z"/></clipPath></defs></svg>