<svg xmlns="http://www.w3.org/2000/svg" width="119" height="54" fill="none"><path fill="#6B6C6B" d="M103.17 30.721h6.101v5.676c-1.12.427-3.317.854-5.401.854-6.748 0-8.993-3.426-8.993-10.383 0-6.639 2.137-10.546 8.879-10.546 3.758 0 5.889 1.179 7.657 3.427l4.661-4.283c-2.846-4.059-7.815-5.29-12.48-5.29-10.488-.003-16.003 5.718-16.003 16.637 0 10.865 4.983 16.755 15.947 16.755 5.035 0 9.955-1.281 12.635-3.16V24.673H103.17zm-32.003 6.05h15.526v6.315h-23.02V10.653h7.494z"/><path fill="#A50034" d="M45.101 44.738c9.795-9.795 9.795-25.677 0-35.47-9.796-9.794-25.677-9.795-35.47 0-9.795 9.794-9.794 25.676.001 35.469 9.795 9.795 25.677 9.795 35.47 0"/><path fill="#fff" d="M19.757 22.11a2.895 2.895 0 1 0-2.686-1.784 2.9 2.9 0 0 0 2.686 1.785m26.529 5.687H33.53v-1.889h14.624q.03.548.03 1.102c0 11.377-9.272 20.599-20.707 20.599S6.77 38.392 6.77 27.01 16.04 6.412 27.476 6.412q.453 0 .902.018v1.875a20 20 0 0 0-.899-.02c-10.394 0-18.823 8.384-18.823 18.723 0 10.34 8.428 18.725 18.823 18.725 10.11 0 18.368-7.932 18.805-17.883zM33.502 35.67h-5.126V16.41H26.48v21.16h1.9v-.013h5.125z"/></svg>