<svg xmlns="http://www.w3.org/2000/svg" viewBox="0 0 324 151.675"><path fill="none" d="M0 0h324v151.675H0z"/><g data-name="2 lines"><g fill="#00b7f1"><path d="M210.242 128.831h32.4v-7.827h-23.4v-11.145h18.445v-7.539h-18.448v-9.678h22.641v-7.769h-31.633v43.958Z" data-name="Path 518"/><path d="M301.68 128.831h9.146V92.69H324v-7.822h-35.489v7.822h13.169Z" data-name="Path 519"/><path d="M143.028 84.868v31.2h-.245s-3.813-5.064-11.088-15.054c-4-5.5-11.942-16.147-11.942-16.147h-9.7v43.963h9.146V97.687h.254s3.654 5.314 11.217 15.39c4.407 5.875 12.224 15.759 12.224 15.759h9.275V84.873h-9.141Z" data-name="Path 520"/><path d="M193.159 84.868v31.2h-.246s-3.813-5.064-11.088-15.054c-4-5.5-11.942-16.147-11.942-16.147h-9.7v43.963h9.146V97.687h.254s3.654 5.314 11.217 15.39c4.407 5.875 12.224 15.759 12.224 15.759h9.275V84.873h-9.141Z" data-name="Path 521"/><path d="M269.093 121.676a14.81 14.81 0 1 1 10.546-25.59l5.549-5.7a23.7 23.7 0 0 0-16.565-7.136 23.44 23.44 0 0 0-23.24 23.538c0 13.073 10.536 23.677 23.221 23.677 8.215 0 13.424-3.688 17.6-8.1l-5.525-5.731a14.95 14.95 0 0 1-11.586 5.042" data-name="Path 522"/><path d="M79.908 83.243c-5.7 0-11.577 1.405-18.157 8.306-3.381 3.544-11.1 15.265-17.893 21.926-4.1 4.019-9.553 7.621-16.5 7.621a17.6 17.6 0 0 1-17.61-17.366A17.37 17.37 0 0 1 27.02 86.278a17.12 17.12 0 0 1 12.253 4.671l6.235-6.278a27.15 27.15 0 0 0-9.218-5.9 23.8 23.8 0 0 0-8.93-1.76C12.248 77.011 0 88.977 0 103.733s12.248 26.722 27.36 26.722a31.04 31.04 0 0 0 21.456-9.218 57.6 57.6 0 0 0 8.186-9.908 22.6 22.6 0 0 0 6.58 12.79 23.2 23.2 0 0 0 16.325 6.335 23.606 23.606 0 1 0 0-47.21Zm.173 38.112a14.539 14.539 0 1 1 14.244-14.536 14.393 14.393 0 0 1-14.245 14.536Z" data-name="Path 523"/></g><g class="brand-name"><path d="M262.466 21.21h11.078v7.827h-11.078z" data-name="Rectangle 385"/><path d="M303.292 58.833a14.5 14.5 0 0 1-7.956 4.393 19.7 19.7 0 0 1-6.215.3 14.7 14.7 0 0 1-7.611-2.969 15.8 15.8 0 0 1-4.455-5.016 13.8 13.8 0 0 1-1.755-4.9 16.2 16.2 0 0 1 .36-7.2 14.62 14.62 0 0 1 11.4-10.752 19.6 19.6 0 0 1 9.328.221 12.9 12.9 0 0 1 5.827 3.189 11.9 11.9 0 0 1 2.551 3.343 8.94 8.94 0 0 1 1.045 4.815h-10.125a4.96 4.96 0 0 0-1.966-3.271 4.13 4.13 0 0 0-4.757-.23 4.67 4.67 0 0 0-2.081 2.681 13.64 13.64 0 0 0-.134 8.134 6.2 6.2 0 0 0 1.77 2.94 4.25 4.25 0 0 0 3.659 1.161 3.44 3.44 0 0 0 2.139-1.151 4.45 4.45 0 0 0 1.113-2.283 14 14 0 0 0 .206-1.794h10.675a10.64 10.64 0 0 1-3.017 8.388" data-name="Path 510"/><path d="M262.466 33.06h11.078v29.624h-11.078z" data-name="Rectangle 386"/><path d="M238.927 36.192a18.3 18.3 0 0 1 4.6-2.983 12.02 12.02 0 0 1 8.752-.652 9.55 9.55 0 0 1 6.609 6.46 14.4 14.4 0 0 1 .705 4.551v19.121h-11.76V45.496a5.3 5.3 0 0 0-.24-1.611 3.25 3.25 0 0 0-1.909-2.12 4.437 4.437 0 0 0-5.6 1.856 4.84 4.84 0 0 0-.7 2.566v16.507h-11.391V33.07h10.685z" data-name="Path 511"/><path d="M106.201 36.192a18.3 18.3 0 0 1 4.6-2.983 12 12 0 0 1 8.748-.652 9.55 9.55 0 0 1 6.609 6.46 14.2 14.2 0 0 1 .7 4.551v19.121h-11.751V45.496a5.3 5.3 0 0 0-.24-1.611 3.25 3.25 0 0 0-1.909-2.12 4.437 4.437 0 0 0-5.6 1.856 4.84 4.84 0 0 0-.7 2.566v16.507H95.267V33.07h10.685z" data-name="Path 512"/><path d="M176.865 51.783a15.5 15.5 0 0 1 2.374.595 1.9 1.9 0 0 1 1.295 1.446 2.18 2.18 0 0 1-.6 2.033 3.4 3.4 0 0 1-1.971 1.007 5.74 5.74 0 0 1-2.969-.278 4 4 0 0 1-1.256-.719 3.13 3.13 0 0 1-1.036-1.554 4.9 4.9 0 0 1-.221-1.578h-10.847v.633a7.7 7.7 0 0 0 .518 2.839 9.1 9.1 0 0 0 2.412 3.6 11.55 11.55 0 0 0 4.935 2.782 26.3 26.3 0 0 0 11.745.734 16.2 16.2 0 0 0 5.266-1.717 10.6 10.6 0 0 0 2.043-1.362 9.01 9.01 0 0 0 2.844-9.86 7.2 7.2 0 0 0-2.23-3.376 12.5 12.5 0 0 0-4.906-2.676c-.417-.12-.767-.221-1.189-.336a53 53 0 0 0-6.7-1.424c-.643-.1-1.18-.2-1.808-.345a4 4 0 0 1-.806-.273 1.32 1.32 0 0 1-.662-1.75 1 1 0 0 1 .053-.1 2.58 2.58 0 0 1 1.587-1.261 5.7 5.7 0 0 1 3.592.086 2.69 2.69 0 0 1 1.846 2.7h10.45a10.1 10.1 0 0 0-.643-3.578 6.35 6.35 0 0 0-2.134-2.964 10.3 10.3 0 0 0-2.8-1.6 15.2 15.2 0 0 0-3.031-.839 30.7 30.7 0 0 0-7.438-.422 23.7 23.7 0 0 0-4.23.614 12.7 12.7 0 0 0-5.16 2.479 8.2 8.2 0 0 0-2.81 3.933 7.1 7.1 0 0 0-.417 2.168 8.3 8.3 0 0 0 .609 3.611 7.86 7.86 0 0 0 4.561 4.561 18.3 18.3 0 0 0 3.218.964c2.288.47 4.22.839 6.517 1.228" data-name="Path 513"/><path d="M45.45 49.91h-7.6v-9.721h4.935c.94 0 1.736-.024 2.671-.072a4.08 4.08 0 0 0 3.156-1.7 3.77 3.77 0 0 0 .739-1.8 6.8 6.8 0 0 0 .038-1.65 4.173 4.173 0 0 0-4.172-3.784h-7.366v31.5H25.26V21.21h20.57c.815 0 1.511.019 2.326.062A14.52 14.52 0 0 1 61.73 37.429a13.45 13.45 0 0 1-10.671 11.87 24.5 24.5 0 0 1-5.606.614" data-name="Path 514"/><path d="M212.827 32.49a21.9 21.9 0 0 0-6.714 0 15.4 15.4 0 0 0-8.642 4.283 14.08 14.08 0 0 0-4.441 9.246 17 17 0 0 0 .575 6.374 14.64 14.64 0 0 0 5.429 8.038 14.14 14.14 0 0 0 5.851 2.714 21.5 21.5 0 0 0 9.16 0 14.1 14.1 0 0 0 5.851-2.714l-6.369-6.94a4.46 4.46 0 0 1-5.9 2.24 4.3 4.3 0 0 1-2.24-2.24 10.3 10.3 0 0 1-.839-2.858 16.6 16.6 0 0 1 .129-5.956 7.7 7.7 0 0 1 1.165-2.863 4.324 4.324 0 0 1 5.985-1.247 4.1 4.1 0 0 1 1.247 1.247 7.7 7.7 0 0 1 1.165 2.863 16.6 16.6 0 0 1 .13 5.956 10.6 10.6 0 0 1-.839 2.858l6.369 6.94a14.64 14.64 0 0 0 5.429-8.038 16.8 16.8 0 0 0 .576-6.374 14.1 14.1 0 0 0-4.446-9.246 15.34 15.34 0 0 0-8.632-4.283" data-name="Path 515"/><path d="M160.02 60.353a135 135 0 0 1-.307-6.959c-.067-3.213-.1-5.932-.125-9.146a19.3 19.3 0 0 0-.638-4.882 7.74 7.74 0 0 0-3.846-4.988 12.2 12.2 0 0 0-3.645-1.372 30.9 30.9 0 0 0-12.349-.245 15 15 0 0 0-3.347.969 8.88 8.88 0 0 0-5.271 5.774 7 7 0 0 0-.283 3.055 1.6 1.6 0 0 0 .163.547l9.971.24a4.45 4.45 0 0 1 .273-1.77 3.02 3.02 0 0 1 1.88-1.885 5.85 5.85 0 0 1 3.98-.067 2.72 2.72 0 0 1 1.8 1.832 1.77 1.77 0 0 1-.249 1.587 2.35 2.35 0 0 1-1.141.887c-.3.11-.552.2-.854.278a39 39 0 0 1-3.985.863c-1.122.187-2.062.36-3.175.58a36 36 0 0 0-4.23 1.108 8.8 8.8 0 0 0-3.424 2 7.24 7.24 0 0 0-2.369 4.5 9.1 9.1 0 0 0 .139 3.448 8.24 8.24 0 0 0 5.884 6.259 14.4 14.4 0 0 0 9.8-.494 9.35 9.35 0 0 0 3.88-2.834l-.7-5.093a4.3 4.3 0 0 1-1.971 1.679 7.4 7.4 0 0 1-2.364.619 5.3 5.3 0 0 1-2.033-.173 2.9 2.9 0 0 1-1.405-.849 2.46 2.46 0 0 1-.643-1.242 1.98 1.98 0 0 1 .671-1.961 4 4 0 0 1 1.252-.729 45 45 0 0 1 3.328-1.084 26 26 0 0 0 3.971-1.463 11.3 11.3 0 0 1-.024 3.093 5 5 0 0 1-.782 2.11l.7 5.093c.221.719.417 1.328.667 2.038a2.85 2.85 0 0 0 .6 1.012h10.985a4.57 4.57 0 0 1-.782-2.331" data-name="Path 516"/><path d="M92.186 60.353a135 135 0 0 1-.307-6.959c-.067-3.213-.1-5.932-.125-9.146a19 19 0 0 0-.638-4.882 7.74 7.74 0 0 0-3.846-4.988 12.2 12.2 0 0 0-3.645-1.372 30.9 30.9 0 0 0-12.349-.245 15 15 0 0 0-3.347.969 8.9 8.9 0 0 0-5.271 5.774 7.1 7.1 0 0 0-.283 3.055 1.6 1.6 0 0 0 .163.547l9.966.24a4.45 4.45 0 0 1 .273-1.77 3.02 3.02 0 0 1 1.88-1.885 5.85 5.85 0 0 1 3.98-.067 2.72 2.72 0 0 1 1.8 1.832 1.77 1.77 0 0 1-.249 1.587 2.37 2.37 0 0 1-1.141.887 9 9 0 0 1-.854.278 39 39 0 0 1-3.985.863c-1.117.187-2.062.36-3.175.58a36 36 0 0 0-4.23 1.108 8.9 8.9 0 0 0-3.429 2 7.24 7.24 0 0 0-2.369 4.5 9.1 9.1 0 0 0 .139 3.448 8.24 8.24 0 0 0 5.884 6.259 14.4 14.4 0 0 0 9.8-.494 9.35 9.35 0 0 0 3.88-2.834l-.7-5.093a4.3 4.3 0 0 1-1.971 1.679 7.4 7.4 0 0 1-2.364.619 5.3 5.3 0 0 1-2.033-.173 2.86 2.86 0 0 1-1.405-.849 2.46 2.46 0 0 1-.643-1.242 1.98 1.98 0 0 1 .671-1.961 4 4 0 0 1 1.252-.729 45 45 0 0 1 3.333-1.084 26 26 0 0 0 3.971-1.463 11.5 11.5 0 0 1-.024 3.093 5 5 0 0 1-.782 2.11l.7 5.093c.221.719.417 1.328.667 2.038a2.85 2.85 0 0 0 .6 1.012h10.982a4.6 4.6 0 0 1-.777-2.331" data-name="Path 517"/></g></g></svg>