<svg xmlns="http://www.w3.org/2000/svg" width="252" height="40" fill="none"><g clip-path="url(#a)"><mask id="b" width="253" height="40" x="1" y="0" maskUnits="userSpaceOnUse" style="mask-type:luminance"><path fill="#fff" d="M1.62.821h251.392v38.19H1.62z"/></mask><g mask="url(#b)"><path fill="#0056A8" d="M247.641 34.68c-2.004 2.107-4.275 3.363-7.123 3.936-1.923.389-3.607.47-5.562.268-2.59-.266-4.728-1.099-6.813-2.658-1.705-1.271-2.926-2.647-3.993-4.49a12.4 12.4 0 0 1-1.569-4.385c-.373-2.255-.275-4.238.318-6.443 1.356-5.014 5.128-8.567 10.211-9.625 2.903-.604 5.485-.542 8.355.2 2.044.528 3.667 1.417 5.213 2.856a10.5 10.5 0 0 1 2.283 2.991c.728 1.392 1.022 2.745.938 4.312h-9.067c-.196-1.215-.779-2.183-1.758-2.927-1.268-.967-2.903-1.044-4.259-.206a4.2 4.2 0 0 0-1.862 2.4c-.781 2.476-.816 4.78-.12 7.281a5.5 5.5 0 0 0 1.59 2.627c.907.865 2.037 1.22 3.277 1.038a3.04 3.04 0 0 0 1.911-1.03 3.94 3.94 0 0 0 .996-2.043c.1-.561.156-1.037.186-1.605h9.559c.19 2.882-.723 5.413-2.711 7.504"/></g><path fill="#0056A8" d="M211.095 8.004h9.917V.999h-9.917zm0 30.118h9.917V11.604h-9.917zm-20.541-23.719a16.4 16.4 0 0 1 4.121-2.673c2.562-1.183 5.123-1.376 7.833-.584 2.906.851 5 2.895 5.917 5.784a12.8 12.8 0 0 1 .631 4.074V38.12h-10.532V22.727c0-.514-.062-.95-.216-1.443a2.9 2.9 0 0 0-1.707-1.894 3.974 3.974 0 0 0-5.014 1.658 4.33 4.33 0 0 0-.623 2.295V38.12h-10.2V11.6h9.569zm-117.284 0a16.4 16.4 0 0 1 4.119-2.673c2.563-1.183 5.126-1.376 7.834-.584 2.908.851 5.002 2.895 5.919 5.784.44 1.387.63 2.619.63 4.074V38.12h-10.53V22.727c0-.514-.065-.95-.215-1.443a2.92 2.92 0 0 0-1.711-1.894 3.97 3.97 0 0 0-5.011 1.658 4.3 4.3 0 0 0-.625 2.295V38.12h-10.2V11.6h9.568z"/><mask id="c" width="253" height="40" x="1" y="0" maskUnits="userSpaceOnUse" style="mask-type:luminance"><path fill="#fff" d="M1.62.821h251.392v38.19H1.62z"/></mask><g mask="url(#c)"><path fill="#0056A8" d="M135.773 28.372c.76.128 1.395.287 2.124.53.61.2 1.029.673 1.162 1.297a1.94 1.94 0 0 1-.537 1.822 3.04 3.04 0 0 1-1.764.903 5.1 5.1 0 0 1-2.655-.25 3.6 3.6 0 0 1-1.127-.642 2.85 2.85 0 0 1-.926-1.394 4.3 4.3 0 0 1-.198-1.414h-9.712v.566c0 .913.142 1.688.463 2.543a8.1 8.1 0 0 0 2.162 3.218c1.315 1.23 2.687 1.997 4.416 2.492 3.59 1.022 6.824 1.225 10.514.66a14.5 14.5 0 0 0 4.716-1.538 9.6 9.6 0 0 0 1.826-1.22c2.623-2.202 3.596-5.564 2.548-8.824a6.45 6.45 0 0 0-1.999-3.023c-1.338-1.16-2.692-1.897-4.392-2.394-.372-.107-.69-.198-1.065-.3a47 47 0 0 0-6.004-1.278 19 19 0 0 1-1.617-.308 3.7 3.7 0 0 1-.719-.245 1.187 1.187 0 0 1-.547-1.66c.32-.574.795-.947 1.422-1.13 1.109-.321 2.13-.294 3.218.077a2.41 2.41 0 0 1 1.653 2.416h9.358a9.2 9.2 0 0 0-.572-3.201 5.7 5.7 0 0 0-1.914-2.651 9.1 9.1 0 0 0-2.499-1.43 13.6 13.6 0 0 0-2.713-.753 27.6 27.6 0 0 0-6.663-.377 21 21 0 0 0-3.787.55c-1.767.417-3.191 1.1-4.619 2.219-1.213.951-2.008 2.063-2.516 3.519a6.4 6.4 0 0 0-.372 1.94 7.4 7.4 0 0 0 .546 3.236c.772 1.936 2.142 3.308 4.082 4.082a16 16 0 0 0 2.879.86c2.043.422 3.772.75 5.828 1.102"/></g><path fill="#0056A8" d="M19.688 26.686h-6.805v-8.701h4.422c.84 0 1.55-.02 2.39-.067 1.164-.063 2.13-.584 2.824-1.52.367-.498.575-1 .662-1.615a6 6 0 0 0 .032-1.476 3.736 3.736 0 0 0-3.737-3.39h-6.593v28.204H1.617V.996h18.415c.732 0 1.35.013 2.081.054 4.886.262 8.91 2.975 10.98 7.408 1.077 2.307 1.443 4.525 1.166 7.058-.584 5.331-4.313 9.478-9.553 10.626a22.2 22.2 0 0 1-5.018.544m147.893-15.592a18 18 0 0 0-3.005-.234c-1.062 0-1.956.068-3.006.234-3.044.477-5.51 1.701-7.732 3.834-2.379 2.286-3.681 4.991-3.98 8.276-.181 2.017-.025 3.755.518 5.706.832 2.992 2.395 5.304 4.861 7.192 1.623 1.248 3.238 1.996 5.238 2.431a18 18 0 0 0 4.101.44 18.2 18.2 0 0 0 4.104-.44c1.998-.435 3.613-1.183 5.236-2.431l-5.698-6.21a3.99 3.99 0 0 1-5.28 2.004 3.85 3.85 0 0 1-2.005-2.003 9.2 9.2 0 0 1-.75-2.559c-.282-1.862-.25-3.48.115-5.33a6.8 6.8 0 0 1 1.042-2.563 3.87 3.87 0 0 1 5.358-1.116c.467.307.809.649 1.113 1.116a6.8 6.8 0 0 1 1.044 2.563c.36 1.85.397 3.468.115 5.33a9.3 9.3 0 0 1-.752 2.559l5.698 6.209c2.468-1.888 4.03-4.2 4.861-7.192.543-1.95.698-3.69.517-5.706-.298-3.285-1.597-5.99-3.977-8.276-2.224-2.136-4.689-3.357-7.736-3.834"/><mask id="d" width="253" height="40" x="1" y="0" maskUnits="userSpaceOnUse" style="mask-type:luminance"><path fill="#fff" d="M1.62.821h251.392v38.19H1.62z"/></mask><g mask="url(#d)"><path fill="#0056A8" d="M121.052 36.043a124 124 0 0 1-.275-6.227 574 574 0 0 1-.112-8.19 17 17 0 0 0-.572-4.37c-.51-1.97-1.664-3.469-3.442-4.464a11.2 11.2 0 0 0-3.261-1.23c-3.824-.819-7.2-.887-11.053-.218a13.4 13.4 0 0 0-2.996.868c-2.348.972-3.965 2.742-4.719 5.167a6.3 6.3 0 0 0-.255 2.735c.02.177.065.327.145.49l8.923.217a4 4 0 0 1 .244-1.584 2.71 2.71 0 0 1 1.681-1.688c1.196-.44 2.349-.457 3.563-.061a2.43 2.43 0 0 1 1.611 1.637c.156.5.079.994-.224 1.422a2.1 2.1 0 0 1-1.02.797 7 7 0 0 1-.765.249c-1.241.334-2.3.564-3.566.774a72 72 0 0 0-2.842.524c-1.351.268-2.48.564-3.788.988a7.9 7.9 0 0 0-3.068 1.79c-1.205 1.101-1.893 2.407-2.123 4.027a8.2 8.2 0 0 0 .123 3.085c.624 2.766 2.544 4.811 5.27 5.604 3.019.876 5.853.732 8.768-.445 1.419-.57 2.5-1.361 3.476-2.539l-.63-4.558a3.86 3.86 0 0 1-1.762 1.504 6.6 6.6 0 0 1-2.119.556 4.7 4.7 0 0 1-1.82-.157 2.6 2.6 0 0 1-1.258-.756 2.25 2.25 0 0 1-.575-1.114 1.77 1.77 0 0 1 .6-1.755 3.5 3.5 0 0 1 1.12-.655 39 39 0 0 1 2.982-.968 23 23 0 0 0 3.555-1.31c.12.97.114 1.8-.021 2.765a4.4 4.4 0 0 1-.702 1.89l.63 4.558c.195.648.375 1.19.596 1.823.125.356.289.631.537.908h9.829a4.25 4.25 0 0 1-.685-2.09m-59.534.001a124 124 0 0 1-.276-6.227 574 574 0 0 1-.112-8.19 17 17 0 0 0-.572-4.37c-.51-1.97-1.663-3.469-3.442-4.464-1.074-.6-2.059-.97-3.26-1.23-3.825-.819-7.2-.887-11.055-.218-1.08.188-1.98.448-2.994.868-2.349.972-3.966 2.742-4.72 5.167a6.3 6.3 0 0 0-.254 2.735 1.4 1.4 0 0 0 .144.49l8.924.217a4 4 0 0 1 .243-1.584 2.71 2.71 0 0 1 1.681-1.688c1.198-.44 2.35-.457 3.562-.061a2.44 2.44 0 0 1 1.615 1.637c.153.5.076.994-.227 1.422-.264.378-.59.633-1.02.797a7 7 0 0 1-.766.249c-1.24.334-2.3.564-3.565.774a73 73 0 0 0-2.843.524 32 32 0 0 0-3.788.988 7.94 7.94 0 0 0-3.067 1.79c-1.204 1.101-1.891 2.407-2.123 4.027a8.2 8.2 0 0 0 .124 3.085c.622 2.766 2.545 4.811 5.267 5.604 3.023.876 5.854.732 8.77-.445 1.418-.57 2.502-1.361 3.477-2.539l-.629-4.558a3.86 3.86 0 0 1-1.766 1.504 6.6 6.6 0 0 1-2.115.556 4.7 4.7 0 0 1-1.821-.157c-.506-.14-.9-.375-1.257-.756a2.25 2.25 0 0 1-.577-1.114 1.77 1.77 0 0 1 .6-1.755c.349-.298.69-.498 1.12-.655a39 39 0 0 1 2.984-.968 23 23 0 0 0 3.555-1.31c.118.97.112 1.8-.022 2.765a4.46 4.46 0 0 1-.7 1.89l.629 4.558c.193.648.373 1.19.596 1.823.124.356.287.631.535.908h9.83a4.26 4.26 0 0 1-.686-2.09"/></g></g><defs><clipPath id="a"><path fill="#fff" d="M.625 0h250.75v40H.624z"/></clipPath></defs></svg>