<svg xmlns="http://www.w3.org/2000/svg" width="185" height="44" fill="none"><path fill="#099" d="M176.247 9.105v5.13c-2.657-1.004-5.023-1.51-7.094-1.51-1.227 0-2.203.226-2.938.665-.734.443-1.109.988-1.109 1.632 0 .855.829 1.616 2.499 2.298l4.822 2.347c3.9 1.859 5.834 4.327 5.834 7.427 0 2.578-1.026 4.634-3.097 6.155-2.055 1.537-4.822 2.298-8.267 2.298q-2.384.002-4.285-.212c-1.269-.136-2.726-.416-4.343-.817V29.15c2.965 1.003 5.664 1.51 8.094 1.51 2.9 0 4.342-.84 4.342-2.536 0-.844-.591-1.526-1.79-2.06l-5.357-2.282c-1.976-.894-3.445-1.976-4.407-3.26-.946-1.294-1.427-2.778-1.427-4.474 0-2.374 1-4.285 2.976-5.74q2.988-2.163 7.919-2.164c1.068 0 2.298.094 3.661.268 1.374.186 2.695.413 3.967.693m-151.711 0v5.13c-2.657-1.004-5.02-1.51-7.09-1.51-1.23 0-2.203.226-2.938.665-.734.443-1.109.988-1.109 1.632 0 .855.84 1.616 2.51 2.298l4.823 2.347c3.884 1.859 5.822 4.327 5.822 7.427 0 2.578-1.03 4.634-3.085 6.155-2.071 1.537-4.823 2.298-8.28 2.298q-2.385.002-4.289-.212c-1.268-.136-2.71-.416-4.338-.817V29.15c2.976 1.003 5.675 1.51 8.09 1.51 2.9 0 4.342-.84 4.342-2.536 0-.844-.587-1.526-1.775-2.06l-5.357-2.282c-1.991-.894-3.46-1.976-4.406-3.26-.962-1.294-1.431-2.778-1.431-4.474q0-3.56 2.979-5.74c1.976-1.441 4.622-2.164 7.908-2.164 1.079 0 2.294.094 3.672.268 1.363.186 2.684.413 3.952.693m5.527-.481h7.855v26.443h-7.855zm33.162 0v4.887H51.554v5.864h10.123v4.407H51.554v6.155h11.91v5.13h-19.47V8.624zm36.671 0v26.443h-7.333v-17.44l-7.609 17.682h-4.527l-7.318-17.683v17.44h-5.304V8.625h9.59l6.544 16.187 6.849-16.187zm25.295 0v4.887h-11.607v5.864h10.123v4.407h-10.123v6.155h11.846v5.13h-19.469V8.624zm27.563 0v26.443h-8.332l-9.35-16.96v16.96h-5.3V8.624h8.574l9.108 16.668V8.624z"/></svg>