<svg xmlns="http://www.w3.org/2000/svg" class="xrx-fw-logo mqcoswp" viewBox="0 0 853.269 173.639"><path d="M815.589 6.394h-5.81v-3.5h15.371v3.5h-5.81v18.994h-3.75Zm13.185-3.5h6.437l5.622 18.999h.377l5.622-18.999h6.437v22.494h-3.623V6.394h-.377l-5.685 18.994h-5.124l-5.686-18.994h-.377v18.994h-3.622Z" style="fill:#231f20"/><path d="M584.526 86.75c0-29.17-11.223-54.992-41.096-54.992-29.93 0-41.461 25.823-41.461 54.992s11.531 55.02 41.461 55.02c29.873 0 41.096-25.85 41.096-55.02m44.05 0c0 49.872-35.273 86.749-85.23 86.749-50.857 0-85.427-35.33-85.427-86.721C457.919 38.17 492.039 0 543.345 0c49.958 0 85.23 36.905 85.23 86.75M288.514 70.66h-77.257a52.9 52.9 0 0 1 4.88-15.977c6.934-13.896 20.014-22.757 36.357-22.757 22.376 0 36.02 15.19 36.02 37.722Zm40.096.674c-2.052-22.53-10.323-40.701-24.219-52.966C291.087 6.525 273.224.085 251.074.085c-16.329 0-36.961 5.654-52.15 18.115-18.074 14.909-32.139 38.198-32.139 69.59 0 27.06 8.818 48.832 24.613 63.543 15.443 14.458 37.369 22.307 64.472 22.307 21.855 0 48.268-8.214 59.52-15.219 3.993-2.418 5.26-3.515 4.261-7.51l-7.103-20.027c-.787-3.206-4.471-4.079-7.398-2.588a144 144 0 0 1-13.727 6.189c-9.76 3.629-19.956 6.103-29.562 6.103-20.267 0-31.87-5.513-40.674-15.751-5.598-6.47-8.875-14.6-9.888-24.05h111.968c4.02 0 5.85-2.786 5.85-7.596v-8.046c0-3.966-.169-10.07-.507-13.81m40.253-47.341C381.521 7.679 401.295.224 433.643.224a115.6 115.6 0 0 1 22.784 2.28c3.797.9 4.417 3.909 3.685 7.82l-3.825 18.845c-.844 3.517-1.857 4.53-4.613 4.53a17 17 0 0 1-2.278-.17c-2.673-.365-10.296-1.181-13.446-1.181-16.09 0-23.713 4.022-29.465 10.043-6.681 7.172-6.878 17.721-6.878 36.595v83.796c0 5.513-2.418 8.607-8.326 8.607h-25.597c-5.457 0-7.82-2.7-8.27-8.607V80.505c0-29.957 1.73-43.994 11.45-56.511m346.967 34.879c5.724-5.99 19.071-22.474 33.854-50.377 2.517-4.783 4.78-5.992 8.086-5.992h27.453c2.505 0 5.457 1.209 3.854 5.992-10.914 32.375-35.836 60.813-49.619 75.497 15.007 14.232 41.686 47.931 54.218 81.011 1.112 2.981.563 6.385-5.696 6.385h-32.854c-3.375 0-6.09-.31-8.354-5.963-8.143-20.282-20.872-41.602-35.415-55.612-15.921 16.878-27.987 37.637-36.117 55.612-2.025 4.416-3.993 5.963-8.34 5.963h-30.14c-2.04 0-4.092-2.335-2.757-5.963 8.96-24.585 26.808-55.19 52.405-78.227-20.14-24.247-39.423-53.81-47.018-78.703-1.167-3.742.83-5.992 3.643-5.992h35.372c3.868 0 5.865 1.575 7.75 5.992 8.72 20.28 20.605 39.605 29.676 50.377m-633.602 0c5.71-5.99 19.044-22.474 33.882-50.377 2.489-4.783 4.711-5.992 8.058-5.992h27.51c2.448 0 5.4 1.209 3.798 5.992-10.971 32.375-35.865 60.813-49.647 75.497 15.048 14.261 41.714 47.959 54.316 81.011 1.07 2.981.506 6.385-5.808 6.385h-32.883c-3.39 0-5.963-.31-8.283-5.963-8.13-20.282-20.9-41.602-35.415-55.583-15.906 16.85-27.988 37.637-36.16 55.583-1.955 4.416-3.923 5.963-8.284 5.963H3.188c-2.025 0-4.078-2.335-2.784-5.963 8.972-24.585 26.835-55.19 52.347-78.227C32.78 62.952 13.399 33.389 5.805 8.496c-1.154-3.742.87-5.992 3.642-5.992H44.82c3.852 0 5.823 1.575 7.777 5.992 8.65 20.28 20.576 39.605 29.633 50.377" style="fill:#d92231"/></svg>