<svg xmlns="http://www.w3.org/2000/svg" width="205.534" height="205.534"><defs><linearGradient id="b" x1="0" x2="1" y1="0" y2="0" gradientTransform="matrix(1474.71 0 0 -1474.71 4985.48 899.69)" gradientUnits="userSpaceOnUse" spreadMethod="pad"><stop offset="0" style="stop-opacity:1;stop-color:#d80687"/><stop offset=".228" style="stop-opacity:1;stop-color:#d80687"/><stop offset=".79" style="stop-opacity:1;stop-color:#2c3892"/><stop offset="1" style="stop-opacity:1;stop-color:#2c3892"/></linearGradient><clipPath id="a" clipPathUnits="userSpaceOnUse"><path d="M6460.19 1670.44s-79.2-43.08-174.58-123.19c-153.41-128.87-348.78-353.76-324.42-650.949 7.79-95.063-29-184.02-93.59-243.992-43.31-40.219-99.01-67.539-162.61-74.418-107.45-11.641-207.61 37.597-266.37 119.847-15.89 39.434-23.9 87.594-23.9 144.614v685.198c-30.24 12.43-63.1 22.22-98.64 29.35-35.57 7.08-71.11 10.66-106.65 10.66-71.1 0-126.22-16-165.3-48.01-39.11-31.98-58.65-79.09-58.65-141.31V762.359c0-119.539 26.44-222.289 78.35-308.871 27.59-46.008 62.02-87.679 104.28-124.379 3.78-3.277 7.99-6.05 11.85-9.238 150.48-136.141 356.03-210.141 573.17-186.621 195.52 21.172 371.08 117.199 494.35 270.422 101.51 126.148 154.55 278.75 162.37 437.687 18.26 370.841-24.74 658.881 50.34 829.081"/></clipPath></defs><path d="M6460.19 1670.44s-79.2-43.08-174.58-123.19c-153.41-128.87-348.78-353.76-324.42-650.949 7.79-95.063-29-184.02-93.59-243.992-43.31-40.219-99.01-67.539-162.61-74.418-107.45-11.641-207.61 37.597-266.37 119.847-15.89 39.434-23.9 87.594-23.9 144.614v685.198c-30.24 12.43-63.1 22.22-98.64 29.35-35.57 7.08-71.11 10.66-106.65 10.66-71.1 0-126.22-16-165.3-48.01-39.11-31.98-58.65-79.09-58.65-141.31V762.359c0-119.539 26.44-222.289 78.35-308.871 27.59-46.008 62.02-87.679 104.28-124.379 3.78-3.277 7.99-6.05 11.85-9.238 150.48-136.141 356.03-210.141 573.17-186.621 195.52 21.172 371.08 117.199 494.35 270.422 101.51 126.148 154.55 278.75 162.37 437.687 18.26 370.841-24.74 658.881 50.34 829.081" clip-path="url(#a)" style="fill:url(#b);fill-opacity:1;fillRule:nonzero;stroke:none" transform="matrix(.13333 0 0 -.13333 -660.278 222.725)"/></svg>