<svg xmlns="http://www.w3.org/2000/svg" data-name="Layer 1" viewBox="0 0 73.58 76.91"><defs><linearGradient id="a" x1="0" x2="73.58" y1="38.46" y2="38.46" gradientUnits="userSpaceOnUse"><stop offset="0" stop-color="#d40e83"/><stop offset=".45" stop-color="#822287"/><stop offset=".82" stop-color="#43318b"/><stop offset="1" stop-color="#2b388d"/></linearGradient></defs><path d="M73.58 0s-3.95 2.15-8.71 6.15c-7.65 6.43-17.4 17.65-16.19 32.48.39 4.74-1.45 9.18-4.67 12.17a14.03 14.03 0 0 1-8.11 3.71c-5.36.58-10.36-1.88-13.29-5.98-.79-1.97-1.19-4.37-1.19-7.22V7.13c-1.51-.62-3.15-1.11-4.92-1.46s-3.55-.53-5.32-.53q-5.325 0-8.25 2.4C.98 9.14 0 11.49 0 14.59v30.73c0 5.96 1.32 11.09 3.91 15.41 1.38 2.3 3.09 4.38 5.2 6.21.19.16.4.3.59.46 7.51 6.79 17.76 10.49 28.6 9.31 9.76-1.06 18.51-5.85 24.67-13.49 5.06-6.29 7.71-13.91 8.1-21.84.91-18.5-1.23-32.88 2.51-41.37Z" style="fill:url(#a)"/></svg>