<?xml version="1.0" encoding="utf-8"?>
<!-- Generator: Adobe Illustrator 27.8.1, SVG Export Plug-In . SVG Version: 6.00 Build 0)  -->
<svg version="1.1" id="Layer_1" xmlns="http://www.w3.org/2000/svg" xmlns:xlink="http://www.w3.org/1999/xlink" x="0px" y="0px"
	 viewBox="0 0 512 512" style="enable-background:new 0 0 512 512;" xml:space="preserve">
<style type="text/css">
	.st0{fill:#86C0AC;}
</style>
<g>
	<path class="st0" d="M410.7,273.8H162.2c-22.2,0-40.2,18-40.2,40.2v89l-51.2,43.3c-8.8,7.4-12,19.5-8,30.2
		c4,10.9,14,17.9,25.6,17.9h322.3c22.2,0,40.2-18,40.2-40.2V314C450.9,291.8,432.9,273.9,410.7,273.8L410.7,273.8z M422.1,454.2
		c0,6.3-5.1,11.4-11.4,11.4l0,0H92.5l53.2-44.9c3.2-2.7,5.1-6.8,5.1-11V314c0-6.3,5.1-11.4,11.4-11.4h248.5
		c6.3,0,11.4,5.1,11.4,11.4V454.2z"/>
	<path class="st0" d="M359.8,345.2H213.1c-8,0-14.4,6.5-14.4,14.4c0,7.9,6.4,14.4,14.4,14.4h146.7c8,0,14.4-6.5,14.4-14.4
		C374.2,351.7,367.7,345.3,359.8,345.2z M297.6,394.1h-84.5c-8,0-14.4,6.5-14.4,14.4c0,7.9,6.4,14.4,14.4,14.4h84.5
		c8,0,14.4-6.5,14.4-14.4C312,400.5,305.5,394.1,297.6,394.1z M101.3,238.2h322.3c11.6,0,21.6-7,25.6-17.9s0.8-22.7-8-30.2
		L390,146.8v-89c0-22.2-18-40.2-40.2-40.2H101.3c-22.2,0-40.2,18-40.2,40.2V198C61.1,220.2,79.1,238.1,101.3,238.2L101.3,238.2z
		 M89.9,57.8c0-6.3,5.1-11.4,11.4-11.4h248.5c6.3,0,11.4,5.1,11.4,11.4v95.7c0,4.2,1.9,8.3,5.1,11l53.2,44.9H101.3
		c-6.3,0-11.4-5.1-11.4-11.4L89.9,57.8L89.9,57.8z"/>
	<path class="st0" d="M152.2,117.8h146.7c8,0,14.4-6.5,14.4-14.4c0-7.9-6.4-14.4-14.4-14.4H152.2c-8,0-14.4,6.4-14.4,14.4
		S144.3,117.8,152.2,117.8z M152.2,166.7h84.5c8,0,14.4-6.4,14.4-14.4c0-8-6.4-14.4-14.4-14.4l0,0h-84.5c-8,0-14.4,6.4-14.4,14.4
		C137.8,160.2,144.3,166.7,152.2,166.7z"/>
</g>
</svg>
