<?xml version="1.0" encoding="UTF-8"?>
<svg id="Layer_1" xmlns="http://www.w3.org/2000/svg" width="512" height="512" xmlns:xlink="http://www.w3.org/1999/xlink" version="1.1" viewBox="0 0 512 512">
  <!-- Generator: Adobe Illustrator 29.2.0, SVG Export Plug-In . SVG Version: 2.1.0 Build 108)  -->
  <defs>
    <style>
      .st0 {
        fill: #ADEDB0;
      }
    </style>
  </defs>
  <path class="st0" d="M480,216c8.8,0,16-7.2,16-16s-7.2-16-16-16h-32v-24h32c8.8,0,16-7.2,16-16s-7.2-16-16-16h-33.5c-6.4-31.5-31-56.1-62.5-62.5v-33.5c0-8.8-7.2-16-16-16s-16,7.2-16,16v32h-24v-32c0-8.8-7.2-16-16-16s-16,7.2-16,16v32h-24v-32c0-8.8-7.2-16-16-16s-16,7.2-16,16v32h-24v-32c0-8.8-7.2-16-16-16s-16,7.2-16,16v32h-24v-32c0-8.8-7.2-16-16-16s-16,7.2-16,16v33.5c-31.5,6.4-56.1,31-62.5,62.5h-33.5c-8.8,0-16,7.2-16,16s7.2,16,16,16h32v24h-32c-8.8,0-16,7.2-16,16s7.2,16,16,16h32v24h-32c-8.8,0-16,7.2-16,16s7.2,16,16,16h32v24h-32c-8.8,0-16,7.2-16,16s7.2,16,16,16h32v24h-32c-8.8,0-16,7.2-16,16s7.2,16,16,16h33.5c6.4,31.5,31,56.1,62.5,62.5v33.5c0,8.8,7.2,16,16,16s16-7.2,16-16v-32h24v32c0,8.8,7.2,16,16,16s16-7.2,16-16v-32h24v32c0,8.8,7.2,16,16,16s16-7.2,16-16v-32h24v32c0,8.8,7.2,16,16,16s16-7.2,16-16v-32h24v32c0,8.8,7.2,16,16,16s16-7.2,16-16v-33.5c31.5-6.4,56.1-31,62.5-62.5h33.5c8.8,0,16-7.2,16-16s-7.2-16-16-16h-32v-24h32c8.8,0,16-7.2,16-16s-7.2-16-16-16h-48c-8.8,0-16,7.2-16,16v56.6c0,26.2-21.3,47.4-47.4,47.4h-225.1c-26.2,0-47.4-21.3-47.4-47.4v-225.1c0-26.2,21.3-47.4,47.4-47.4h225.1c26.2,0,47.4,21.3,47.4,47.4v112.6c0,8.8,7.2,16,16,16h48c8.8,0,16-7.2,16-16s-7.2-16-16-16h-32v-24h32Z"/>
  <path class="st0" d="M217.5,269.9h30.6l-15.3-43.8-15.4,43.8Z"/>
  <path class="st0" d="M368,128h-224c-8.8,0-16,7.2-16,16v224c0,8.8,7.2,16,16,16h224c8.8,0,16-7.2,16-16v-224c0-8.8-7.2-16-16-16ZM292.3,315.1c-.6.7-1.5,1.1-2.5,1.1h-22.4c-2.5.1-4.9-1.4-5.8-3.8l-6.2-16.5h-45l-6.2,16.7c-.9,2.4-3.3,3.9-5.8,3.8h-22.2c-.9,0-1.8-.4-2.5-1.1-.7-.6-1.1-1.5-1.1-2.5,0-.5,0-1.1,0-1.6l40-110.3c.8-3.1,3.7-5.1,6.9-5h26.8c3.2-.2,6.1,1.9,7,5l40,110.3c0,.5,0,1.1,0,1.6,0,.8-.2,1.6-.7,2.2h0ZM339.7,311.9c0,1.1-.4,2.2-1.2,3-.8.8-1.9,1.3-3,1.3h-24.6c-2.4,0-4.3-2-4.3-4.3v-111.9c0-1.2.4-2.3,1.3-3.1.8-.8,1.9-1.2,3-1.2h24.6c1.1,0,2.2.4,3,1.2.8.8,1.2,2,1.2,3.1v111.9Z"/>
</svg>