<?xml version="1.0" encoding="UTF-8"?>
<svg xmlns="http://www.w3.org/2000/svg" xmlns:xlink="http://www.w3.org/1999/xlink" version="1.1" width="512" height="512" x="0" y="0" viewBox="0 0 32 32" style="enable-background:new 0 0 512 512" xml:space="preserve" class="">
  <g>
    <g fill="#6621ba">
      <path d="M15.985 29.1H5.905a2.221 2.221 0 0 1-2.22-2.22V5.12c0-1.225.995-2.22 2.22-2.22h18.62c1.224 0 2.219.995 2.219 2.22v13.47a.9.9 0 0 0 1.8 0V5.12a4.026 4.026 0 0 0-4.02-4.021H5.905A4.026 4.026 0 0 0 1.884 5.12v21.76a4.026 4.026 0 0 0 4.021 4.021h10.08a.9.9 0 0 0 0-1.801z" fill="#d2cbff" opacity="1" data-original="#6621ba"/>
      <path d="M23.32 9a.9.9 0 0 0-.9-.9H12.333a.9.9 0 0 0 0 1.8H22.42a.9.9 0 0 0 .9-.9zM8.641 8.1H8.01a.9.9 0 0 0 0 1.8h.631a.9.9 0 0 0 0-1.8zM8.641 15.1H8.02a.9.9 0 0 0 0 1.8h.621a.9.9 0 0 0 0-1.8zM20.83 16a.9.9 0 0 0-.9-.9h-7.597a.9.9 0 0 0 0 1.8h7.597a.9.9 0 0 0 .9-.9zM8.641 22.1H8.02a.9.9 0 0 0 0 1.8h.621a.9.9 0 0 0 0-1.8zM12.333 22.1a.9.9 0 0 0 0 1.8h1.917a.9.9 0 0 0 0-1.8z" fill="#d2cbff" opacity="1" data-original="#6621ba"/>
    </g>
    <path fill="#d2cbff" d="M30.032 22.713a1.671 1.671 0 0 0-1.358-1.146l-2.643-.384-1.183-2.396c-.285-.578-.863-.938-1.508-.938s-1.223.359-1.508.938l-1.183 2.396-2.644.384c-.639.094-1.159.533-1.357 1.146s-.035 1.273.427 1.723l1.912 1.864-.451 2.631c-.11.636.146 1.266.667 1.646a1.673 1.673 0 0 0 1.773.129l2.363-1.243 2.363 1.243a1.675 1.675 0 0 0 1.773-.129 1.67 1.67 0 0 0 .667-1.645l-.449-2.632 1.912-1.863a1.675 1.675 0 0 0 .427-1.724zm-3.638 2.341a1.683 1.683 0 0 0-.484 1.489L26.33 29l-2.209-1.161a1.689 1.689 0 0 0-1.563.001L20.352 29l.422-2.459a1.683 1.683 0 0 0-.485-1.487l-1.785-1.74 2.468-.358a1.682 1.682 0 0 0 1.266-.92l1.104-2.236 1.104 2.235c.244.496.718.841 1.268.921l2.467.358z" opacity="1" data-original="#f98a17" class=""/>
  </g>
</svg>
