<?xml version="1.0" encoding="UTF-8"?>
<svg id="Layer_1" xmlns="http://www.w3.org/2000/svg" width="32" height="32" version="1.1" viewBox="0 0 32 32">
  <!-- Generator: Adobe Illustrator 29.2.0, SVG Export Plug-In . SVG Version: 2.1.0 Build 108)  -->
  <defs>
    <style>
      .st0 {
        fill: #d2cbff;
      }
    </style>
  </defs>
  <g id="social_media">
    <path class="st0" d="M27.8,15.4c-.5,0-.9.5-.8,1,0,.2,0,.5,0,.7,0,1.2-.2,2.3-.5,3.3h-4.9c.1-1.1.2-2.2.2-3.3s0-.5,0-.8c0-.5-.5-.9-.9-.9-.5,0-.9.4-.9.9,0,.2,0,.5,0,.7,0,1.2,0,2.3-.2,3.3h-9.6c-.1-1-.2-2.2-.2-3.3s0-2.3.2-3.3h6.4c.5,0,.9-.4.9-.9s-.4-.9-.9-.9h-6.1c.9-4.2,2.8-6.9,4.5-6.9s.5,0,.7,0c.5,0,.9-.3,1-.8s-.3-.9-.8-1c-.3,0-.6,0-.9,0C7.3,3.2,1.1,9.4,1.1,17.1s6.2,13.8,13.8,13.8,13.8-6.2,13.8-13.8,0-.6,0-.9c0-.5-.5-.9-1-.8ZM19.4,22.2c-.9,4.2-2.8,6.9-4.5,6.9s-3.6-2.7-4.5-6.9h9ZM8.3,20.4H3.4c-.3-1.1-.5-2.2-.5-3.3s.2-2.3.5-3.3h4.9c-.1,1.1-.2,2.2-.2,3.3,0,1.2,0,2.3.2,3.3ZM11,5.7c-1.1,1.5-1.9,3.7-2.4,6.2h-4.5c1.4-2.9,3.9-5.2,7-6.2ZM4.1,22.2h4.5c.5,2.5,1.3,4.7,2.4,6.2-3.1-1.1-5.6-3.3-7-6.2ZM18.9,28.4c1.1-1.5,1.9-3.7,2.4-6.2h4.5c-1.4,2.9-3.9,5.2-6.9,6.2Z"/>
    <path class="st0" d="M24.3,1.1c-3.7,0-6.6,3-6.6,6.6s3,6.6,6.6,6.6,6.6-3,6.6-6.6-3-6.6-6.6-6.6ZM21.9,12c.6-.6,1.4-1,2.3-1s1.7.4,2.3,1c-.7.4-1.5.6-2.3.6s-1.6-.2-2.3-.6ZM24.3,9.2c-.8,0-1.4-.6-1.4-1.4s.6-1.4,1.4-1.4,1.4.6,1.4,1.4-.6,1.4-1.4,1.4ZM28,10.8c-.4-.4-.8-.7-1.2-1,.5-.6.8-1.3.8-2.1,0-1.8-1.5-3.2-3.2-3.2s-3.2,1.5-3.2,3.2.3,1.5.8,2.1c-.5.3-.9.6-1.2,1-.7-.8-1.1-1.9-1.1-3.1,0-2.7,2.2-4.8,4.8-4.8s4.8,2.2,4.8,4.8-.4,2.2-1.1,3.1Z"/>
  </g>
</svg>