<?xml version="1.0" encoding="UTF-8"?>
<svg xmlns="http://www.w3.org/2000/svg" xmlns:xlink="http://www.w3.org/1999/xlink" version="1.1" width="512" height="512" x="0" y="0" viewBox="0 0 32 32" style="enable-background:new 0 0 512 512" xml:space="preserve">
  <g>
    <path d="M26 1.1H6A4.905 4.905 0 0 0 1.1 6v20c0 2.702 2.198 4.9 4.9 4.9h20c2.702 0 4.9-2.198 4.9-4.9V6c0-2.702-2.198-4.9-4.9-4.9zM6 2.9h20c1.709 0 3.1 1.391 3.1 3.1v3.6H2.9V6c0-1.709 1.391-3.1 3.1-3.1zm20 26.2H6A3.104 3.104 0 0 1 2.9 26V11.4h26.2V26c0 1.709-1.391 3.1-3.1 3.1z" fill="#acc6ff" opacity="1" data-original="#000000"/>
    <path d="M25.09 15.1h-9.257a.9.9 0 0 0 0 1.8h9.257a.9.9 0 0 0 0-1.8zM25.09 19.35h-9.257a.9.9 0 0 0 0 1.8h9.257a.9.9 0 0 0 0-1.8zM25.09 23.6H6.91a.9.9 0 0 0 0 1.8h18.18a.9.9 0 0 0 0-1.8zM6.961 7.15h.492a.9.9 0 0 0 0-1.8h-.492a.9.9 0 0 0 0 1.8zM10.836 7.15h.492a.9.9 0 0 0 0-1.8h-.492a.9.9 0 0 0 0 1.8zM7.471 21.15h4.303c.805 0 1.46-.655 1.46-1.46v-3.129c0-.805-.655-1.46-1.46-1.46H7.471c-.806 0-1.461.655-1.461 1.46v3.129c0 .805.655 1.46 1.461 1.46zm.34-4.25h3.622v2.45H7.811z" fill="#acc6ff" opacity="1" data-original="#000000"/>
  </g>
</svg>
