<?xml version="1.0" encoding="UTF-8"?>
<svg xmlns="http://www.w3.org/2000/svg" xmlns:xlink="http://www.w3.org/1999/xlink" version="1.1" width="512" height="512" x="0" y="0" viewBox="0 0 32 32" style="enable-background:new 0 0 512 512" xml:space="preserve" class="">
  <g>
    <path d="M5.698 16.68a.895.895 0 0 0 .617-.245l6.309-5.942a.143.143 0 0 1 .167-.02l5.466 3.085a1.955 1.955 0 0 0 2.408-.404l6.31-7.133a.9.9 0 1 0-1.348-1.194l-6.311 7.134a.141.141 0 0 1-.175.028l-5.466-3.084a1.934 1.934 0 0 0-2.286.276l-6.31 5.942a.903.903 0 0 0 .619 1.557z" fill="#acc6ff" opacity="1" data-original="#000000"/>
    <path d="M30 25.676h-1.022V13.88c0-.878-.715-1.593-1.593-1.593h-2.166c-.878 0-1.593.715-1.593 1.593v11.796H22.11v-6.613c0-.878-.715-1.593-1.594-1.593H18.35c-.878 0-1.592.715-1.592 1.593v6.613h-1.517v-9.204c0-.878-.714-1.593-1.593-1.593h-2.166c-.878 0-1.592.715-1.592 1.593v9.204H8.374V20.79c0-.878-.714-1.593-1.592-1.593H4.615c-.878 0-1.592.715-1.592 1.593v4.886H2a.9.9 0 0 0 0 1.8h28a.9.9 0 0 0 0-1.8zm-4.573-11.588h1.75v11.588h-1.75zm-6.868 5.183h1.751v6.405h-1.751zM11.69 16.68h1.751v8.996H11.69zm-6.867 4.318h1.751v4.678H4.823z" fill="#acc6ff" opacity="1" data-original="#000000"/>
  </g>
</svg>
