<?xml version="1.0" encoding="UTF-8"?>
<svg id="Layer_1" xmlns="http://www.w3.org/2000/svg" width="512" height="512" xmlns:xlink="http://www.w3.org/1999/xlink" version="1.1" viewBox="0 0 512 512">
  <!-- Generator: Adobe Illustrator 29.2.0, SVG Export Plug-In . SVG Version: 2.1.0 Build 108)  -->
  <defs>
    <style>
      .st0 {
        fill: #acc6ff;
      }
    </style>
  </defs>
  <path class="st0" d="M255.2,402.6h57.9c17,0,30.9-13.8,30.9-30.9V84.1c0-17.1-13.8-30.9-30.9-30.9h-57.9c-17.1,0-30.9,13.8-30.9,30.9v287.6c0,17,13.8,30.9,30.9,30.9h0ZM253.1,84.1c0-1.1.9-2.1,2.1-2.1,0,0,0,0,0,0h57.9c1.1,0,2.1.9,2.1,2.1,0,0,0,0,0,0v287.6c0,1.1-.9,2.1-2.1,2.1h-57.9c-1.1,0-2.1-.9-2.1-2.1V84.1ZM104.8,402.6h57.9c17,0,30.9-13.8,30.9-30.9v-109.7c0-17-13.9-30.9-30.9-30.9h-57.9c-17,0-30.9,13.8-30.9,30.9v109.7c0,17,13.9,30.9,30.9,30.9ZM102.7,262c0-1.1.9-2.1,2.1-2.1h57.9c1.1,0,2.1.9,2.1,2.1v109.7c0,1.1-.9,2.1-2.1,2.1h-57.9c-1.1,0-2.1-.9-2.1-2.1v-109.7ZM463.5,144.6h-57.9c-17.1,0-30.9,13.8-30.9,30.9v196.1c0,17,13.9,30.9,30.9,30.9h57.9c17,0,30.9-13.8,30.9-30.9v-196.2c0-17-13.8-30.9-30.9-30.9ZM465.6,371.7c0,1.1-.9,2.1-2.1,2.1h-57.9c-1.1,0-2.1-.9-2.1-2.1v-196.1c0-1.1.9-2.1,2.1-2.1,0,0,0,0,0,0h57.9c1.1,0,2.1.9,2.1,2.1,0,0,0,0,0,0v196.1Z"/>
  <path class="st0" d="M480,430H46.4V67.6c0-8-6.4-14.4-14.4-14.4s-14.4,6.4-14.4,14.4v376.9c0,8,6.4,14.4,14.4,14.4h448c8,0,14.4-6.5,14.4-14.4,0-7.9-6.4-14.4-14.4-14.4Z"/>
</svg>