<?xml version="1.0" encoding="UTF-8"?>
<svg xmlns="http://www.w3.org/2000/svg" xmlns:xlink="http://www.w3.org/1999/xlink" version="1.1" width="512" height="512" x="0" y="0" viewBox="0 0 512 512" style="enable-background:new 0 0 512 512" xml:space="preserve" class="">
  <g>
    <path d="M331.324 0c-99.591 0-180.613 81.022-180.613 180.613 0 32.918 8.857 63.804 24.306 90.409L13.718 432.321c-18.204 18.203-18.204 47.823 0 66.026C22.819 507.449 34.775 512 46.73 512c11.955 0 23.912-4.55 33.012-13.653l161.332-161.333c26.569 15.391 57.397 24.211 90.248 24.211 99.591 0 180.613-81.023 180.613-180.613S430.915 0 331.324 0zM58.51 477.114c-6.496 6.496-17.064 6.496-23.559.001-6.495-6.495-6.495-17.064 0-23.56l10.125-10.125 23.559 23.559-10.125 10.125zm31.358-31.357-23.559-23.559 16.263-16.263 23.559 23.56-16.263 16.262zm37.495-37.496-23.559-23.56 88.69-88.69a182.211 182.211 0 0 0 23.57 23.549l-88.701 88.701zm203.961-77.064c-83.033 0-150.584-67.552-150.584-150.584S248.291 30.029 331.324 30.029 481.908 97.58 481.908 180.613s-67.551 150.584-150.584 150.584z" fill="#d2cbff" opacity="1" data-original="#000000" class=""/>
    <path d="M410.908 163.716c-8.292 0-15.014 6.722-15.014 15.014v65.244c0 8.292 6.722 15.014 15.014 15.014s15.014-6.722 15.014-15.014V178.73c0-8.293-6.723-15.014-15.014-15.014zM361.226 96.676c-8.292 0-15.014 6.722-15.014 15.014v132.283c0 8.292 6.722 15.014 15.014 15.014s15.014-6.722 15.014-15.014V111.69c.001-8.292-6.722-15.014-15.014-15.014zM310.847 130.196c-8.292 0-15.014 6.722-15.014 15.014v99.661c0 8.292 6.722 15.014 15.014 15.014s15.014-6.722 15.014-15.014V145.21c.001-8.292-6.722-15.014-15.014-15.014zM258.327 97.574c-8.292 0-15.014 6.722-15.014 15.014v132.283c0 8.292 6.722 15.014 15.014 15.014s15.014-6.722 15.014-15.014V112.588c.001-8.292-6.722-15.014-15.014-15.014z" fill="#d2cbff" opacity="1" data-original="#000000" class=""/>
  </g>
</svg>
