<?xml version="1.0" encoding="UTF-8"?>
<svg id="Layer_1" xmlns="http://www.w3.org/2000/svg" width="32" height="32" version="1.1" viewBox="0 0 32 32">
  <!-- Generator: Adobe Illustrator 29.2.0, SVG Export Plug-In . SVG Version: 2.1.0 Build 108)  -->
  <defs>
    <style>
      .st0 {
        fill: #dcf6d4;
      }
    </style>
  </defs>
  <g id="document">
    <path class="st0" d="M26.4,1.1H9.3c-1.5,0-2.8,1.2-2.8,2.7v1h-1c-1.5,0-2.8,1.2-2.8,2.8v20.6c0,1.5,1.2,2.8,2.8,2.8h17.1c1.5,0,2.8-1.2,2.8-2.8v-1h1c1.5,0,2.8-1.2,2.8-2.8V3.9c0-1.5-1.2-2.8-2.8-2.8ZM23.6,28.1c0,.5-.4,1-1,1H5.6c-.5,0-1-.4-1-1V7.6c0-.5.4-1,1-1h17.1c.5,0,1,.4,1,1v20.6h0ZM27.4,24.4c0,.5-.4,1-1,1h-1V7.6c0-1.5-1.2-2.8-2.8-2.8h-14.3v-1c0-.5.4-1,.9-1h17.1c.5,0,1,.4,1,1v20.6Z"/>
    <path class="st0" d="M19.6,9.8h-10.8c-.5,0-.9.4-.9.9s.4.9.9.9h10.8c.5,0,.9-.4.9-.9s-.4-.9-.9-.9Z"/>
    <path class="st0" d="M19.6,14.6h-10.8c-.5,0-.9.4-.9.9s.4.9.9.9h10.8c.5,0,.9-.4.9-.9s-.4-.9-.9-.9Z"/>
    <path class="st0" d="M19.6,19.3h-10.8c-.5,0-.9.4-.9.9s.4.9.9.9h10.8c.5,0,.9-.4.9-.9s-.4-.9-.9-.9Z"/>
    <path class="st0" d="M13.4,24.1h-4.7c-.5,0-.9.4-.9.9s.4.9.9.9h4.7c.5,0,.9-.4.9-.9s-.4-.9-.9-.9Z"/>
  </g>
</svg>