<?xml version="1.0" encoding="UTF-8"?>
<svg xmlns="http://www.w3.org/2000/svg" xmlns:xlink="http://www.w3.org/1999/xlink" version="1.1" width="512" height="512" x="0" y="0" viewBox="0 0 32 32" style="enable-background:new 0 0 512 512" xml:space="preserve" class="">
  <g>
    <path d="M26.65 5.578a.9.9 0 1 0-1.284 1.26A12.998 12.998 0 0 1 29.1 16c0 7.223-5.877 13.1-13.1 13.1a13.2 13.2 0 0 1-4.221-.68l1.699-.816a.9.9 0 0 0-.779-1.623l-3.229 1.55c-.352.171-.575.521-.581.913s.205.747.549.927c1.875.986 4.206 1.529 6.562 1.529 8.216 0 14.9-6.684 14.9-14.9 0-3.93-1.509-7.632-4.25-10.422zM2.9 16C2.9 8.777 8.777 2.9 16 2.9c1.492 0 2.947.235 4.232.674l-1.71.821a.9.9 0 0 0 .779 1.623l3.229-1.551c.352-.169.575-.518.583-.909.008-.39-.2-.746-.541-.928C20.73 1.644 18.396 1.1 16 1.1 7.784 1.1 1.1 7.784 1.1 16c0 3.93 1.509 7.632 4.25 10.422a.895.895 0 0 0 1.272.012.899.899 0 0 0 .012-1.272A12.998 12.998 0 0 1 2.9 16z" fill="#acc6ff" opacity="1" data-original="#000000" class=""/>
    <path d="m11.548 22.254.996-.269.265.998a2.667 2.667 0 0 0 2.575 1.979h1.231a2.667 2.667 0 0 0 2.575-1.98l.265-.998.996.269a2.662 2.662 0 0 0 3.002-1.239l.616-1.067a2.664 2.664 0 0 0-.427-3.219L22.911 16l.731-.728a2.665 2.665 0 0 0 .427-3.22l-.616-1.066a2.666 2.666 0 0 0-3.002-1.24l-.996.269-.265-.998a2.667 2.667 0 0 0-2.575-1.979h-1.231a2.667 2.667 0 0 0-2.575 1.98l-.265.998-.996-.269a2.66 2.66 0 0 0-3.002 1.239l-.616 1.067a2.664 2.664 0 0 0 .427 3.219l.732.728-.731.728a2.665 2.665 0 0 0-.427 3.22l.616 1.066a2.66 2.66 0 0 0 3.001 1.24zm-.958-7.3-.962-.958a.864.864 0 0 1-.138-1.043l.616-1.067a.865.865 0 0 1 .974-.402l1.31.354c.382.103.781.052 1.123-.146.343-.198.587-.517.689-.9l.348-1.312a.866.866 0 0 1 .835-.643h1.231c.391 0 .735.264.835.642l.349 1.313c.102.382.346.702.689.899s.74.25 1.123.146l1.311-.354a.864.864 0 0 1 .973.402l.616 1.066a.865.865 0 0 1-.138 1.044l-.963.958c-.28.279-.434.65-.434 1.046s.154.767.435 1.046l.962.958a.864.864 0 0 1 .138 1.043l-.616 1.067a.868.868 0 0 1-.974.402l-1.31-.354a1.46 1.46 0 0 0-1.123.146 1.466 1.466 0 0 0-.689.9l-.348 1.312a.866.866 0 0 1-.835.643h-1.231a.865.865 0 0 1-.835-.642l-.349-1.313a1.465 1.465 0 0 0-.689-.899 1.469 1.469 0 0 0-1.123-.146l-1.311.354a.866.866 0 0 1-.973-.402l-.616-1.066a.865.865 0 0 1 .138-1.044l.963-.958c.28-.279.434-.65.434-1.046s-.155-.767-.435-1.046z" fill="#acc6ff" opacity="1" data-original="#000000" class=""/>
    <path d="M16 19.219c1.775 0 3.219-1.444 3.219-3.219S17.775 12.781 16 12.781 12.781 14.225 12.781 16s1.444 3.219 3.219 3.219zm0-4.638c.782 0 1.419.637 1.419 1.419s-.637 1.419-1.419 1.419-1.419-.637-1.419-1.419.637-1.419 1.419-1.419z" fill="#acc6ff" opacity="1" data-original="#000000" class=""/>
  </g>
</svg>
